<svg width="413" height="413" viewBox="0 0 413 413" fill="none" xmlns="http://www.w3.org/2000/svg">
<g filter="url(#filter0_d_1754_28)">
<path d="M341.325 313.206L337.38 310.106L340.51 306.126C341.596 304.784 342.782 303.201 343.783 301.747L347.023 297.169L326.617 283.856L329.359 279.655L353.931 295.684L350.67 300.698L347.896 304.618C346.84 306.148 345.571 307.849 344.43 309.256L341.325 313.206Z" fill="url(#paint0_linear_1754_28)"/>
<path d="M339.27 333.63L318.102 313.304L321.467 309.775C322.488 308.752 323.757 307.29 324.866 305.991C325.317 305.461 325.779 304.935 326.226 304.423C326.963 303.58 327.655 302.79 328.187 302.105L331.214 298.253L335.162 301.353L332.142 305.196C331.565 305.933 330.808 306.803 330 307.726C329.569 308.22 329.122 308.729 328.686 309.244C327.552 310.57 326.263 312.058 325.185 313.151L342.747 330.014L339.27 333.63Z" fill="url(#paint1_linear_1754_28)"/>
<path d="M308.207 344.255L305.285 340.182L307.322 338.719C307.349 338.702 308.127 338.14 309.245 337.245L313.682 333.756C315.205 332.479 316.727 331.172 317.868 330.182L301.605 312.125L305.333 308.767L324.999 330.603L323.095 332.278C323.095 332.278 320.003 335.005 316.842 337.648L312.363 341.175C311.119 342.171 310.246 342.798 310.246 342.798L308.207 344.255Z" fill="url(#paint2_linear_1754_28)"/>
<path d="M301.067 363.505L285.85 338.463L294.312 333.038L302.459 327.25L305.363 331.338L297.119 337.194L292.679 340.044L305.353 360.899L301.067 363.505Z" fill="url(#paint3_linear_1754_28)"/>
<path d="M268.249 365.702L266.488 361.004L268.836 360.124C268.874 360.112 272.618 358.702 276.172 357.014C278.053 356.204 279.892 355.318 281.246 354.641L270.155 332.966L274.62 330.681L287.971 356.773L285.804 357.937C285.653 358.02 282.056 359.946 278.237 361.584C274.572 363.327 270.757 364.762 270.594 364.822L268.249 365.702Z" fill="url(#paint4_linear_1754_28)"/>
<path d="M256.365 382.436L248.133 354.23L252.848 352.898C253.646 352.652 254.654 352.309 255.73 351.942L257.701 351.275C259.663 350.636 261.291 350.049 262.427 349.567L267.022 347.751L268.868 352.414L264.32 354.212C262.78 354.864 260.716 355.569 259.269 356.041L257.35 356.688C256.259 357.061 255.231 357.41 254.366 357.679L261.18 381.032L256.365 382.436Z" fill="url(#paint5_linear_1754_28)"/>
<path d="M224.188 376.164L223.559 371.19L230.007 370.37C231.213 370.22 232.6 370.052 233.97 369.778L239.528 368.785L234.446 344.99L239.352 343.944L245.475 372.615L242.382 373.33C241.956 373.438 241.259 373.578 240.418 373.721L234.905 374.704C233.431 375.003 231.936 375.186 230.619 375.349L224.188 376.164Z" fill="url(#paint6_linear_1754_28)"/>
<path d="M208.321 389.178L207.646 359.833L212.522 359.708C213.739 359.708 215.374 359.615 217.594 359.427L227.544 358.411L228.178 363.387L223.338 364.007L218.003 364.425C215.735 364.619 214.062 364.714 212.776 364.721L213.335 389.063L208.321 389.178Z" fill="url(#paint7_linear_1754_28)"/>
<path d="M365.166 274.759L360.646 272.592L361.727 270.33C361.742 270.3 362.153 269.434 362.698 268.118L364.749 262.918C365.389 261.386 365.923 259.798 366.352 258.524L366.623 257.721L343.508 250.162L345.068 245.394L372.999 254.528L371.108 260.122C370.651 261.471 370.087 263.151 369.397 264.807L367.353 269.994C366.718 271.526 366.249 272.499 366.249 272.499L365.166 274.759Z" fill="url(#paint8_linear_1754_28)"/>
<path d="M368.589 294.99L342.777 280.724L344.172 278.479C344.202 278.429 344.641 277.717 345.18 276.616L347.585 271.923C348.155 270.854 348.624 269.788 349.045 268.835C349.298 268.261 349.537 267.724 349.762 267.25L351.754 262.848L356.324 264.915L354.31 269.364C354.082 269.846 353.866 270.338 353.635 270.862C353.164 271.923 352.639 273.109 352.025 274.253L349.692 278.813L371.017 290.601L368.589 294.99Z" fill="url(#paint9_linear_1754_28)"/>
<path d="M378.571 231.268L373.595 230.636L374.942 220.031L375.361 214.556L351.109 213.229L351.38 208.22L380.753 209.825L379.93 220.54L378.571 231.268Z" fill="url(#paint10_linear_1754_28)"/>
<path d="M386.922 250.037L358.465 242.994L359.548 238.276C359.646 237.814 359.779 237.257 359.925 236.663C360.168 235.635 360.446 234.486 360.642 233.32L361.565 228.145C361.816 226.856 361.918 225.993 361.923 225.953L362.217 223.465L367.191 224.049L366.905 226.535C366.905 226.535 366.787 227.556 366.498 229.063L365.585 234.175C365.375 235.434 365.071 236.701 364.8 237.832C364.672 238.361 364.552 238.858 364.457 239.309L388.129 245.166L386.922 250.037Z" fill="url(#paint11_linear_1754_28)"/>
<path d="M206.277 337.24C205.144 337.24 204.549 337.195 204.549 337.195L202.059 337.002L202.425 332.018L204.918 332.191C204.978 332.196 205.705 332.239 207.02 332.216L213.578 332.036C221.554 331.532 228.989 330.458 236.215 328.76C241.128 327.689 246.413 325.958 250.937 324.408C255.999 322.412 261.299 320.325 266.46 317.498C272.535 314.275 277.619 311.13 282.039 307.867C287.73 303.741 292.467 299.776 296.546 295.733C305.435 287.165 313.285 277.014 319.277 266.352L322.136 261.005L323.385 258.559C323.742 257.714 324.193 256.736 324.64 255.763C325.392 254.132 326.102 252.59 326.659 251.037L328.199 247.147L329.372 243.641C330.035 241.845 330.491 240.2 330.932 238.612C331.143 237.855 331.351 237.107 331.572 236.375C334.133 226.977 335.046 219.018 335.505 213.854L335.628 212.244C335.786 210.237 335.909 208.652 335.894 207.551L336.014 202.618L341.028 202.738L340.91 207.581C340.928 208.81 340.797 210.498 340.629 212.633L340.506 214.263C340.025 219.655 339.079 227.91 336.395 237.749C336.167 238.512 335.969 239.229 335.766 239.956C335.294 241.647 334.81 243.395 334.145 245.181L331.351 252.808C330.752 254.489 329.959 256.204 329.197 257.862C328.768 258.793 328.334 259.731 327.928 260.686L324.833 266.761L323.634 268.838C317.421 279.891 309.262 290.443 300.055 299.319C295.816 303.52 290.885 307.649 285.001 311.918C280.398 315.316 275.106 318.589 268.841 321.913C263.433 324.877 257.98 327.024 252.711 329.099C247.905 330.751 242.447 332.535 237.323 333.653C229.856 335.407 222.151 336.518 213.807 337.044L207.135 337.233C206.822 337.238 206.533 337.24 206.277 337.24Z" fill="url(#paint12_linear_1754_28)"/>
<path d="M206.516 352.705C206.17 352.705 205.854 352.695 205.58 352.685L201.961 352.587L202.096 347.573L205.766 347.671C206.097 347.684 206.513 347.704 207.01 347.676L214.399 347.471C223.303 346.914 231.62 345.715 239.749 343.806C245.502 342.542 251.575 340.536 256.23 338.928C262.392 336.518 268.031 334.245 273.641 331.183C280.363 327.621 286.057 324.1 291.073 320.408C297.376 315.838 302.678 311.401 307.301 306.831C317.233 297.255 326.017 285.895 332.726 273.962L335.079 269.638L337.321 265.243C337.71 264.33 338.189 263.292 338.66 262.259C339.528 260.373 340.348 258.592 341 256.791L343.059 251.423L344.085 248.376C344.783 246.475 345.309 244.589 345.821 242.763C346.044 241.963 346.263 241.173 346.493 240.395C348.658 232.437 350.107 224.167 350.902 215.171L351.005 213.826C351.196 211.368 351.349 209.427 351.336 208.093L351.464 202.906L356.481 203.029L356.353 208.135C356.365 209.6 356.207 211.637 356.007 214.213L355.901 215.584C355.076 224.91 353.576 233.465 351.319 241.765C351.081 242.572 350.865 243.337 350.649 244.115C350.115 246.033 349.558 248.017 348.816 250.039L346.744 255.908L345.693 258.567C344.993 260.498 344.09 262.457 343.22 264.353C342.761 265.351 342.299 266.357 341.858 267.38L338.46 274.047L337.085 276.447C330.155 288.775 321.063 300.531 310.807 310.42C306.022 315.148 300.529 319.748 294.033 324.458C288.831 328.288 282.932 331.938 276.017 335.602C270.173 338.79 264.381 341.127 257.96 343.636C253.085 345.321 246.832 347.385 240.86 348.697C232.49 350.664 223.897 351.903 214.627 352.479L207.203 352.69C206.965 352.7 206.736 352.705 206.516 352.705Z" fill="url(#paint13_linear_1754_28)"/>
<path d="M206.511 404.676C206.06 404.676 205.656 404.664 205.307 404.654L201.314 404.571L201.415 399.557L205.453 399.64C205.939 399.655 206.549 399.673 207.269 399.645L209.308 399.597C211.385 399.552 214.016 399.495 217.143 399.367C229.185 398.644 240.482 397.019 251.63 394.401C258.034 392.971 265.355 390.796 274.038 387.751C281.585 384.852 289.742 381.549 297.783 377.205C306.714 372.487 314.45 367.704 321.457 362.572C329.712 356.6 337.113 350.405 343.466 344.155C356.923 331.173 368.844 315.757 377.959 299.56C385.872 285.767 392.162 270.43 396.664 253.949C399.652 242.951 401.62 231.712 402.686 219.592C402.997 215.607 403.268 212.146 403.276 209.931L403.424 203.876L408.438 203.997L408.292 210.004C408.285 212.351 408.019 215.73 407.685 220.009C406.592 232.449 404.57 243.977 401.505 255.268C396.89 272.161 390.437 287.897 382.318 302.038C372.982 318.634 360.753 334.448 346.968 347.749C340.452 354.16 332.857 360.515 324.41 366.628C317.214 371.897 309.275 376.806 300.148 381.632C291.876 386.099 283.542 389.477 275.769 392.459C266.827 395.597 259.318 397.822 252.749 399.291C241.345 401.968 229.772 403.633 217.397 404.375C214.184 404.508 211.52 404.566 209.418 404.614L207.434 404.659C207.108 404.672 206.8 404.676 206.511 404.676Z" fill="url(#paint14_linear_1754_28)"/>
<path d="M206.509 389.222C206.088 389.222 205.709 389.209 205.381 389.199L201.498 389.101L201.628 384.087L205.539 384.185C205.978 384.2 206.529 384.215 207.194 384.19L209.321 384.14C211.2 384.097 213.55 384.045 216.321 383.934C227.432 383.262 237.844 381.762 248.097 379.354C253.976 378.045 260.53 376.101 268.742 373.232C275.293 370.706 282.998 367.639 290.605 363.518C298.875 359.146 306.005 354.739 312.421 350.032C320.171 344.421 326.805 338.87 332.714 333.054C345.122 321.083 356.111 306.874 364.505 291.948C371.781 279.282 377.578 265.153 381.739 249.934C384.488 239.818 386.301 229.465 387.287 218.278L387.319 217.852C387.605 214.2 387.831 211.313 387.831 209.385L387.972 203.588L392.985 203.708L392.847 209.447C392.847 211.509 392.614 214.481 392.321 218.243L392.286 218.692C391.275 230.202 389.409 240.844 386.58 251.253C382.303 266.889 376.344 281.414 368.867 294.426C360.249 309.753 348.952 324.361 336.216 336.648C330.144 342.625 323.321 348.336 315.376 354.087C308.769 358.931 301.438 363.465 292.973 367.942C285.499 371.988 277.738 375.138 270.472 377.94C261.997 380.904 255.263 382.899 249.216 384.245C238.712 386.713 228.024 388.251 216.572 388.943C213.715 389.059 211.335 389.111 209.434 389.154L207.37 389.204C207.066 389.217 206.778 389.222 206.509 389.222Z" fill="url(#paint15_linear_1754_28)"/>
<path d="M113.599 350.252L109.35 347.523C108.457 346.921 107.442 346.199 106.366 345.429L102.207 342.472L96.0645 337.658L99.162 333.711L109.28 341.345C110.313 342.085 111.289 342.78 112.104 343.329L112.114 343.337L125.4 322.918L129.606 325.654L113.599 350.252Z" fill="url(#paint16_linear_1754_28)"/>
<path d="M79.2624 339.101L75.6406 335.63L95.9466 314.436L99.4781 317.802C100.406 318.732 101.74 319.881 103.032 320.995L103.275 321.203C106.039 323.689 108.981 325.943 109.012 325.968L111.006 327.491L107.956 331.476L105.964 329.951C105.836 329.854 102.832 327.551 99.9597 324.968L99.7589 324.795C98.3945 323.621 97.1054 322.51 96.1046 321.519L79.2624 339.101Z" fill="url(#paint17_linear_1754_28)"/>
<path d="M78.6257 321.378L71.6129 313.234L68.0663 308.725C67.0907 307.496 66.4636 306.648 66.4636 306.648L64.9688 304.631L68.9969 301.644L70.4893 303.656C70.5018 303.673 71.0887 304.463 72.0042 305.617L75.4855 310.046L79.0771 314.215L97.1032 297.94L100.462 301.664L78.6257 321.378Z" fill="url(#paint18_linear_1754_28)"/>
<path d="M48.337 301.737L45.7285 297.453L70.7548 282.208L76.1825 290.671L81.9738 298.815L77.8855 301.719L72.0265 293.48L69.1797 289.043L48.337 301.737Z" fill="url(#paint19_linear_1754_28)"/>
<path d="M52.3942 284.378L50.0866 279.868C49.4922 278.775 48.8501 277.35 48.1729 275.843L47.6438 274.674C45.8805 270.962 44.4383 267.152 44.3756 266.991L43.4902 264.644L48.183 262.87L49.0683 265.218C49.0834 265.253 50.5005 269 52.191 272.557L52.7453 273.783C53.3723 275.173 53.9692 276.51 54.5235 277.525L54.5737 277.623L76.2317 266.512L78.5216 270.974L52.3942 284.378Z" fill="url(#paint20_linear_1754_28)"/>
<path d="M56.7767 265.246L53.1525 255.673L51.4995 250.752L28.1536 257.589L26.7441 252.776L54.9482 244.514L56.2776 249.234L60.5188 261.068L61.4419 263.4L56.7767 265.246Z" fill="url(#paint21_linear_1754_28)"/>
<path d="M36.5648 241.872L35.8401 238.779C35.7297 238.318 35.5717 237.633 35.4388 236.803L34.453 231.305C34.137 229.725 33.9338 228.074 33.7683 226.75L32.9883 220.585L37.9644 219.961L38.747 226.131C38.9025 227.405 39.088 228.897 39.3815 230.372L40.3748 235.923L64.1696 230.816L65.2231 235.719L36.5648 241.872Z" fill="url(#paint22_linear_1754_28)"/>
<path d="M45.7671 224.571L45.1425 219.717C45.0397 218.747 44.957 217.631 44.8692 216.442L44.7137 214.395C44.5757 212.657 44.4177 210.701 44.4076 209.166L20.0735 209.752L19.9531 204.739L49.2961 204.029L49.4239 208.907C49.4214 210.334 49.577 212.278 49.7149 213.991L49.8729 216.076C49.9557 217.204 50.0334 218.268 50.1237 219.141L50.7407 223.924L45.7671 224.571Z" fill="url(#paint23_linear_1754_28)"/>
<path d="M154.78 369.269L148.828 367.26C147.574 366.838 146.012 366.314 144.494 365.68L139.307 363.633C137.762 363.021 136.774 362.529 136.774 362.529L134.529 361.418L136.744 356.926L138.991 358.03C139.031 358.05 139.869 358.459 141.153 358.97L146.383 361.032C147.802 361.626 149.214 362.098 150.421 362.502L151.58 362.893L159.114 339.775L163.885 341.33L154.78 369.269Z" fill="url(#paint24_linear_1754_28)"/>
<path d="M118.702 367.328L114.311 364.908L128.539 339.099L130.777 340.463C130.822 340.488 131.547 340.925 132.67 341.476L137.358 343.879C138.419 344.436 139.495 344.91 140.456 345.334C141.025 345.587 141.557 345.823 142.028 346.046L146.435 348.043L144.366 352.613L139.919 350.599C139.442 350.373 138.951 350.155 138.424 349.924C137.371 349.455 136.192 348.933 135.048 348.331L130.471 345.986L118.702 367.328Z" fill="url(#paint25_linear_1754_28)"/>
<path d="M199.489 376.979L188.774 376.164L178.047 374.809L178.676 369.833L189.283 371.175L194.756 371.589L196.055 347.335L201.064 347.606L199.489 376.979Z" fill="url(#paint26_linear_1754_28)"/>
<path d="M164.162 384.385L159.291 383.187L166.299 354.717L171.024 355.805C171.483 355.898 172.05 356.036 172.657 356.181C173.67 356.425 174.804 356.7 175.955 356.881L181.147 357.809C182.424 358.055 183.267 358.148 183.319 358.153L185.807 358.416L185.288 363.397L182.797 363.144C182.797 363.144 181.762 363.039 180.229 362.738L175.125 361.827C173.889 361.634 172.619 361.33 171.483 361.057C170.949 360.929 170.445 360.806 169.988 360.711L164.162 384.385Z" fill="url(#paint27_linear_1754_28)"/>
<path d="M206.53 337.248L201.694 337.125C200.307 337.147 198.298 336.987 195.77 336.786L194.998 336.726C186.61 335.996 178.938 334.664 171.519 332.647C160.149 329.525 149.688 325.246 140.423 319.924C129.354 313.713 118.795 305.564 109.911 296.372C101.002 287.24 93.1715 276.447 87.2748 265.171C84.2927 259.731 82.0454 254.039 80.0615 249.021C78.4211 244.26 76.6353 238.81 75.5066 233.681C73.7208 226.101 72.6022 218.394 72.0931 210.159L71.8973 203.495C71.8647 202.853 71.8823 202.284 71.8973 201.855L71.9826 198.524L76.9964 198.644L76.9112 202.03C76.8987 202.349 76.8836 202.773 76.9112 203.295L77.1043 209.934C77.5909 217.797 78.6719 225.228 80.3975 232.567C81.481 237.486 83.2116 242.765 84.7667 247.285C86.7506 252.299 88.845 257.596 91.6942 262.803C97.3928 273.696 104.93 284.082 113.51 292.878C122.068 301.734 132.226 309.575 142.898 315.559C151.82 320.684 161.887 324.799 172.84 327.809C179.961 329.743 187.345 331.025 195.411 331.727L196.166 331.787C198.567 331.975 200.445 332.121 201.727 332.108L206.658 332.231L206.53 337.248Z" fill="url(#paint28_linear_1754_28)"/>
<path d="M206.257 352.698L201.151 352.57C199.566 352.593 197.073 352.392 194.01 352.151L193.694 352.126C184.391 351.321 175.833 349.834 167.516 347.576C154.885 344.12 143.212 339.344 132.821 333.383C120.491 326.465 108.725 317.386 98.8156 307.14C88.8908 296.964 80.165 284.935 73.5911 272.362C70.3832 266.485 67.9503 260.478 65.5425 254.331C63.852 249.452 61.7827 243.199 60.4609 237.235C58.4644 228.753 57.2154 220.16 56.6561 211C56.5683 208.976 56.5307 207.26 56.4981 205.833C56.478 204.98 56.4605 204.235 56.4404 203.601C56.4053 202.866 56.4228 202.249 56.4378 201.78L56.5182 198.351L61.5319 198.459L61.4517 201.938C61.4392 202.307 61.4241 202.793 61.4517 203.393C61.4743 204.072 61.4918 204.84 61.5118 205.72C61.5444 207.12 61.5821 208.803 61.6649 210.741C62.2042 219.565 63.413 227.882 65.3518 236.116C66.626 241.865 68.6375 247.94 70.2478 252.595C72.5603 258.492 74.928 264.338 78.013 269.999C84.3862 282.184 92.8186 293.807 102.415 303.643C111.996 313.556 123.365 322.327 135.297 329.021C145.342 334.782 156.619 339.392 168.833 342.738C176.854 344.913 185.124 346.35 194.108 347.127L194.406 347.152C197.338 347.383 199.593 347.526 201.196 347.556L206.38 347.682L206.257 352.698Z" fill="url(#paint29_linear_1754_28)"/>
<path d="M205.342 404.662L199.338 404.509C197.103 404.501 193.842 404.275 189.327 403.914C176.917 402.846 165.387 400.839 154.068 397.779C137.221 393.199 121.477 386.761 107.278 378.645C90.6693 369.317 74.8454 357.107 61.5271 343.342C48.1787 329.65 36.4405 313.465 27.5892 296.548C23.0771 288.196 19.5682 279.547 16.7365 272.191C13.6013 263.27 11.3666 255.768 9.88177 249.181C7.16795 237.659 5.48996 226.086 4.76259 213.826C4.61963 210.741 4.56439 208.153 4.51925 206.086L4.46659 203.872C4.43147 202.891 4.4516 202.083 4.46916 201.476L4.55697 197.737L9.5707 197.857L9.48289 201.609C9.46784 202.138 9.44784 202.838 9.48044 203.706L9.53555 205.978C9.5807 208.013 9.63599 210.558 9.77143 213.563C10.4787 225.499 12.1165 236.791 14.7701 248.055C16.2173 254.471 18.3994 261.792 21.4443 270.458C24.1932 277.596 27.6219 286.061 32.0162 294.193C40.6643 310.716 52.1065 326.493 65.1263 339.846C78.1135 353.275 93.5462 365.181 109.751 374.278C123.599 382.196 138.946 388.469 155.382 392.936C166.406 395.918 177.65 397.875 189.744 398.915C194.126 399.267 197.278 399.485 199.413 399.495L205.467 399.648L205.342 404.662Z" fill="url(#paint30_linear_1754_28)"/>
<path d="M205.615 389.212L199.882 389.064C197.684 389.064 194.391 388.813 190.632 388.512C179.144 387.524 168.497 385.67 158.073 382.848C142.48 378.605 127.95 372.66 114.88 365.183C99.543 356.573 84.923 345.294 72.623 332.575C60.2904 319.929 49.4501 304.98 41.2735 289.357C37.1978 281.828 34.0475 274.102 31.256 266.879C28.2913 258.419 26.2899 251.689 24.9305 245.63C22.4248 234.998 20.8772 224.313 20.2 212.984C20.0771 210.192 20.022 207.844 19.9819 205.958L19.9266 203.789C19.894 202.896 19.9116 202.159 19.9266 201.599L19.9969 197.935L25.0132 198.023L24.9405 201.727C24.928 202.206 24.9104 202.841 24.9405 203.621L24.9982 205.848C25.0358 207.704 25.0884 210.012 25.2113 212.723C25.8659 223.721 27.3758 234.13 29.8188 244.504C31.1431 250.398 33.092 256.947 35.9613 265.146C38.6676 272.138 41.7401 279.685 45.7005 286.999C53.6689 302.229 64.2181 316.769 76.2196 329.079C88.1961 341.461 102.417 352.435 117.353 360.819C130.075 368.095 144.211 373.874 159.388 378.008C169.518 380.749 179.877 382.55 191.048 383.516C194.682 383.804 197.873 384.047 199.947 384.05L205.746 384.198L205.615 389.212Z" fill="url(#paint31_linear_1754_28)"/>
<path d="M83.0142 126.557L58.3516 110.718L59.6432 108.621C59.7335 108.476 61.878 105.007 64.346 101.669C66.631 98.3178 69.2093 95.1575 69.3147 95.0245L70.9024 93.0833L74.7874 96.2561L73.1998 98.1973C73.1772 98.2299 70.649 101.33 68.4343 104.576C67.2153 106.226 66.0741 107.914 65.2414 109.181L85.7255 122.338L83.0142 126.557Z" fill="url(#paint32_linear_1754_28)"/>
<path d="M81.0068 107.975L77.054 104.885L80.0713 101.035C80.9692 99.8282 82.3161 98.2857 83.5075 96.9238C83.964 96.4071 84.4053 95.893 84.8317 95.3939C85.5867 94.516 86.299 93.6858 86.9361 93.0212L69.2637 76.2942L72.7124 72.6525L94.0417 92.8405L90.6632 96.3845C90.0412 97.0191 89.364 97.8142 88.6442 98.6569C88.2002 99.1736 87.7387 99.7104 87.2747 100.237C86.1536 101.519 84.8744 102.984 84.0517 104.085L81.0068 107.975Z" fill="url(#paint33_linear_1754_28)"/>
<path d="M106.828 97.2694L87.0234 75.5964L88.872 73.9034C88.872 73.9034 89.6495 73.1911 90.8484 72.1627L95.0947 68.4857L103.565 61.784L106.675 65.7193L98.29 72.3509L94.1391 75.9475L110.53 93.8884L106.828 97.2694Z" fill="url(#paint34_linear_1754_28)"/>
<path d="M109.816 78.8119L106.628 74.9493L108.557 73.3516C108.557 73.3516 109.354 72.6895 110.639 71.8041L114.867 68.7969C115.906 68.052 116.989 67.3647 117.965 66.7502C118.431 66.4567 118.875 66.1784 119.267 65.9175L106.455 45.165L110.721 42.529L126.124 67.4751L122.051 70.091C121.652 70.3569 121.163 70.6654 120.639 70.994C119.746 71.5583 118.745 72.1879 117.784 72.8777L113.516 75.915C112.447 76.6499 111.787 77.1892 111.747 77.2193L109.816 78.8119Z" fill="url(#paint35_linear_1754_28)"/>
<path d="M137.389 75.1406L123.82 49.0834L130.683 45.5744L138.658 41.9652L143.474 40.059L145.32 44.7216L140.607 46.5852L132.862 50.0891L130.602 51.2479L141.839 72.8256L137.389 75.1406Z" fill="url(#paint36_linear_1754_28)"/>
<path d="M144.827 57.9993L142.988 53.3317L148.561 51.137C149.76 50.658 151.157 50.1036 152.597 49.6547L157.45 48.0119L150.463 24.6861L155.268 23.2463L163.731 51.4957L161.167 52.1252C161.12 52.1378 160.292 52.3434 159.098 52.7472L154.152 54.4227C152.788 54.8516 151.511 55.3608 150.417 55.7972L144.827 57.9993Z" fill="url(#paint37_linear_1754_28)"/>
<path d="M172.561 61.6467L166.23 32.9986L171.144 31.8674L182.483 29.9662L187.512 29.3291L188.142 34.3054L180.524 35.2761L172.202 36.7709L177.459 60.5632L172.561 61.6467Z" fill="url(#paint38_linear_1754_28)"/>
<path d="M184.301 47.1122L183.566 42.1485L186.047 41.7823C186.208 41.7598 189.97 41.2079 193.842 40.9972C195.693 40.8166 197.557 40.7138 198.992 40.6561L198.259 16.3296L203.273 16.1765L204.156 45.5721L201.603 45.5997C201.562 45.5997 197.85 45.6474 194.219 45.996C190.471 46.2042 186.82 46.741 186.782 46.746L184.301 47.1122Z" fill="url(#paint39_linear_1754_28)"/>
<path d="M67.5292 160.924L39.5156 151.983L41.1534 147.142C41.334 146.628 41.5121 146.088 41.7052 145.512C42.0965 144.333 42.538 143.011 43.0471 141.714L45.1088 136.477C45.6831 134.975 46.1397 133.984 46.1397 133.984L47.1906 131.712L51.7429 133.808L50.697 136.083C50.6794 136.121 50.2881 136.979 49.7864 138.291L47.7148 143.553C47.2407 144.762 46.8319 145.993 46.4657 147.094C46.2676 147.691 46.082 148.253 45.9014 148.755L69.0542 156.144L67.5292 160.924Z" fill="url(#paint40_linear_1754_28)"/>
<path d="M60.6866 143.523L56.1191 141.451L60.2953 132.246L62.6981 127.551L41.2559 115.896L43.6511 111.489L69.3948 125.482L64.8124 134.426L60.6866 143.523Z" fill="url(#paint41_linear_1754_28)"/>
<path d="M61.4903 198.145L32.1875 196.751L32.2829 194.265C32.2829 194.265 32.3205 193.202 32.456 191.604L32.8823 186.013C32.9826 184.634 33.1632 183.249 33.3312 182.015C33.409 181.413 33.4842 180.849 33.5419 180.342L34.189 175.276L39.1653 175.913L38.5232 180.934C38.468 181.436 38.3877 182.038 38.3025 182.68C38.1495 183.819 37.9763 185.1 37.8835 186.387L37.4572 191.98L61.731 193.136L61.4903 198.145Z" fill="url(#paint42_linear_1754_28)"/>
<path d="M50.6028 182.958L45.6166 182.464L45.86 179.971C45.86 179.971 45.9578 178.96 46.2036 177.458L47.1291 172.279C47.4175 170.438 47.8564 168.569 48.1774 167.207L48.1925 167.15L24.498 161.466L25.6693 156.588L54.1946 163.433L53.1059 168.168C52.7423 169.713 52.3435 171.403 52.0727 173.109L51.1472 178.303C50.944 179.555 50.8562 180.428 50.8512 180.465L50.6028 182.958Z" fill="url(#paint43_linear_1754_28)"/>
<path d="M76.8654 203.668L71.8516 203.533L72.3407 192C72.9728 183.706 74.2543 176.018 76.2533 168.501C79.2104 157.423 83.4241 146.941 88.7891 137.345C91.4101 132.527 94.7083 127.47 99.1603 121.451C102.739 116.685 106.983 111.862 112.148 106.695C121.247 97.7438 131.99 89.8481 143.231 83.8512C153.489 78.4335 164.35 74.3001 174.646 71.9023C184.756 69.4894 193.033 68.6467 198.19 68.3683C199.981 68.2329 201.583 68.2053 202.905 68.1852C203.615 68.1727 204.239 68.1626 204.771 68.135C206.479 68.0598 207.372 68.1125 207.375 68.1125L209.873 68.2655L209.594 73.2617L207.099 73.1238C207.013 73.1188 206.294 73.0886 205.017 73.1463C204.455 73.1764 203.768 73.1864 202.985 73.199C201.744 73.2215 200.244 73.2416 198.516 73.372C193.509 73.6454 185.556 74.4556 175.797 76.7831C165.9 79.0906 155.458 83.0636 145.584 88.283C134.769 94.0518 124.425 101.654 115.679 110.257C110.7 115.241 106.61 119.888 103.181 124.448C98.8845 130.259 95.7015 135.133 93.1834 139.765C88.009 149.023 83.9484 159.118 81.1016 169.793C79.1829 177.006 77.9539 184.398 77.3419 192.386L76.8654 203.668Z" fill="url(#paint44_linear_1754_28)"/>
<path d="M61.4142 203.487L56.4004 203.352L56.9346 190.798C57.6419 181.573 59.0716 173.003 61.3039 164.593C64.5846 152.261 69.2898 140.563 75.2893 129.828C78.2289 124.438 82.0137 118.634 86.8519 112.108C90.8875 106.738 95.6179 101.365 101.316 95.6692C111.454 85.6967 123.431 76.8982 135.962 70.214C147.349 64.1894 159.465 59.582 171.003 56.8832C182.224 54.1994 191.477 53.2588 197.261 52.9403C199.308 52.7898 201.113 52.7572 202.601 52.7321C203.366 52.7196 204.035 52.7095 204.612 52.6794C206.481 52.6017 207.462 52.6569 207.462 52.6569L209.957 52.7948L209.701 57.7861L207.206 57.6682C207.14 57.6632 206.32 57.6305 204.838 57.6907C204.234 57.7208 203.509 57.7334 202.686 57.7484C201.279 57.771 199.563 57.8011 197.582 57.9466C191.959 58.2551 183.024 59.1656 172.157 61.764C161.018 64.3675 149.32 68.8219 138.314 74.6459C126.21 81.1019 114.637 89.6046 104.848 99.2334C99.33 104.746 94.7551 109.943 90.87 115.107C86.1848 121.43 82.5204 127.044 79.6811 132.251C73.8723 142.647 69.3249 153.954 66.1546 165.882C63.9976 173.989 62.6207 182.266 61.936 191.182L61.6174 195.386L61.4142 203.487Z" fill="url(#paint45_linear_1754_28)"/>
<path d="M9.45123 202.873L4.4375 202.75L4.69824 192.539L5.1172 186.753C6.07281 174.395 8.00152 162.85 11.0188 151.448C15.3329 135.127 21.8541 118.912 29.8752 104.553C34.0211 96.986 39.1177 89.1756 45.4508 80.6855C50.9462 73.3918 57.4874 65.9626 64.8965 58.5936C78.5233 45.18 94.6357 33.3441 111.495 24.3599C126.687 16.2987 143.028 10.081 158.754 6.37396C173.683 2.79231 186.223 1.50804 194.114 1.0641C197.054 0.858429 199.582 0.80835 201.613 0.773239C202.521 0.753174 203.329 0.738129 204.034 0.710526C206.452 0.630264 207.728 0.685425 207.728 0.685425L210.231 0.790756L210.031 5.79457L207.53 5.69672C207.477 5.69672 206.329 5.65404 204.217 5.72427C203.495 5.75186 202.654 5.76941 201.709 5.78697C199.732 5.8246 197.277 5.86971 194.43 6.07036C186.713 6.50677 174.49 7.75845 159.915 11.2548C144.59 14.864 128.666 20.9287 113.851 28.7892C97.4147 37.5502 81.7036 49.0903 68.423 62.1603C61.192 69.3537 54.8112 76.5997 49.4639 83.6953C43.2838 91.9847 38.3076 99.6044 34.2644 106.981C26.434 120.996 20.0782 136.81 15.8696 152.73C12.93 163.836 11.049 175.087 10.1184 187.129L9.59918 196.878L9.45123 202.873Z" fill="url(#paint46_linear_1754_28)"/>
<path d="M24.9005 203.058L19.8867 202.925L20.1802 192.697L20.5262 187.959C21.4091 176.527 23.1899 165.867 25.9714 155.358C30.0246 140.053 35.8812 125.489 43.3806 112.07C47.1729 105.142 51.8807 97.9264 57.7649 90.0308C62.8087 83.3315 68.8483 76.4692 75.7257 69.6194C88.3216 57.2267 103.2 46.2961 118.771 37.9966C132.834 30.5399 147.915 24.8012 162.397 21.3952C176.22 18.0819 187.785 16.9005 195.051 16.4892C197.725 16.3011 200.037 16.2585 201.896 16.2259C202.766 16.2083 203.536 16.1933 204.208 16.1682C206.461 16.088 207.647 16.1407 207.647 16.1407L210.148 16.2535L209.937 21.2547L207.434 21.1519C207.381 21.1519 206.325 21.1143 204.399 21.1795C203.709 21.2071 202.899 21.2221 201.989 21.2396C200.188 21.2722 197.948 21.315 195.367 21.498C188.272 21.8968 177.028 23.0455 163.556 26.276C149.475 29.5868 134.81 35.17 121.128 42.4261C105.982 50.4998 91.4994 61.1344 79.2546 73.1861C72.5554 79.8553 66.6738 86.5395 61.7803 93.0381C56.0442 100.736 51.4593 107.758 47.7698 114.498C40.5714 127.385 34.7149 141.955 30.8223 156.642C28.1185 166.853 26.3878 177.219 25.5275 188.333L25.1438 193.565L24.9005 203.058Z" fill="url(#paint47_linear_1754_28)"/>
<path d="M283.787 79.9334L279.5 77.3274L294.78 52.1858L303.829 57.9871L312.645 64.2424L309.741 68.3332L301.022 62.1456L296.4 59.1809L283.787 79.9334Z" fill="url(#paint48_linear_1754_28)"/>
<path d="M313.498 87.5056L311.637 85.8678C311.629 85.8628 308.803 83.3722 305.916 80.9518L301.966 77.8492C300.814 76.9287 300.094 76.4095 300.069 76.3919L298.035 74.9272L300.957 70.8565L302.994 72.3162C302.994 72.3162 303.812 72.9007 304.985 73.8437L309.076 77.0566C310.551 78.2931 311.993 79.5322 313.082 80.4727L329.405 62.3563L333.129 65.7122L313.498 87.5056Z" fill="url(#paint49_linear_1754_28)"/>
<path d="M312.788 104.089L309.314 100.47L330.501 80.1315L334.002 83.8035C335.164 84.9698 336.603 86.6251 337.852 88.0848C338.316 88.6316 338.785 89.1684 339.242 89.6876C340.117 90.6909 340.94 91.6364 341.574 92.4516L344.7 96.4194L340.762 99.5245L337.624 95.5416C337.032 94.7841 336.27 93.9137 335.462 92.9882C334.993 92.4515 334.511 91.8972 334.035 91.3404C332.921 90.0387 331.499 88.3959 330.408 87.3048L330.345 87.2371L312.788 104.089Z" fill="url(#paint50_linear_1754_28)"/>
<path d="M339.534 119.046L336.891 114.915L333.934 110.746C332.993 109.377 331.899 107.912 330.906 106.693L327.861 102.82L331.804 99.7177L334.826 103.563C335.872 104.844 337.056 106.43 338.049 107.877L341.029 112.083L361.405 98.7922L364.144 102.993L339.534 119.046Z" fill="url(#paint51_linear_1754_28)"/>
<path d="M362.919 137.646L360.835 133.031C360.621 132.585 360.378 132.036 360.12 131.449C359.653 130.398 359.134 129.219 358.527 128.08L355.959 123.064L334.67 134.832L332.244 130.443L357.83 116.297L359.091 118.326C359.091 118.326 359.681 119.274 360.426 120.779L362.974 125.755C363.621 126.969 364.198 128.263 364.707 129.419C364.948 129.961 365.171 130.47 365.384 130.924L367.491 135.582L362.919 137.646Z" fill="url(#paint52_linear_1754_28)"/>
<path d="M356.66 156.153L354.859 150.821C354.46 149.632 353.983 148.2 353.396 146.806L351.46 141.89C350.979 140.718 350.595 139.926 350.58 139.893L349.486 137.638L353.991 135.449L355.092 137.701C355.092 137.701 355.538 138.611 356.113 140.018L358.044 144.914C358.671 146.404 359.195 147.969 359.617 149.226L359.822 149.843L382.983 142.268L384.543 147.036L356.66 156.153Z" fill="url(#paint53_linear_1754_28)"/>
<path d="M374.262 180.096L373.963 177.608C373.958 177.568 373.845 176.635 373.582 175.261L372.589 169.693C372.371 168.403 372.07 167.152 371.806 166.038C371.656 165.416 371.52 164.837 371.407 164.31L347.816 170.147L346.609 165.278L375.14 158.218L376.298 163.191C376.414 163.733 376.547 164.285 376.685 164.877C376.976 166.091 377.297 167.453 377.53 168.832L378.516 174.348C378.819 175.93 378.947 177.019 378.947 177.019L379.238 179.507L374.262 180.096Z" fill="url(#paint54_linear_1754_28)"/>
<path d="M363.593 196.449L362.821 186.422L361.875 179.005L366.851 178.368L367.809 185.913L368.216 191.175L392.577 189.841L392.851 194.852L363.593 196.449Z" fill="url(#paint55_linear_1754_28)"/>
<path d="M249.548 64.1772L244.732 62.7726L252.949 34.6009L257.807 35.9854C258.836 36.2989 260.025 36.7028 261.284 37.1317L263.25 37.7964C264.783 38.298 266.99 39.053 268.713 39.7753L273.381 41.6112L271.542 46.2789L266.827 44.4229C265.535 43.8836 263.772 43.2466 261.678 42.5618L259.666 41.8796C258.462 41.4682 257.326 41.082 256.385 40.7961L256.37 40.7911L249.548 64.1772Z" fill="url(#paint56_linear_1754_28)"/>
<path d="M280.142 63.8686L277.889 62.6546C277.854 62.6395 274.589 60.8839 271.24 59.4542C267.854 57.8415 264.391 56.5448 264.355 56.5323L262.008 55.6544L263.761 50.9541L266.109 51.8319C266.259 51.8871 269.818 53.2189 273.31 54.8843C275.02 55.6167 276.706 56.4244 277.99 57.0665L289.076 35.3985L293.54 37.686L280.142 63.8686Z" fill="url(#paint57_linear_1754_28)"/>
<path d="M212.377 57.7963L207.363 57.6809L208.041 28.323L213.109 28.4535C214.451 28.456 216.35 28.5613 218.866 28.772L229.606 29.8605L228.974 34.8368L223.95 34.2021L218.459 33.7733C216.067 33.5701 214.296 33.4722 213.037 33.4672L212.939 33.4648L212.377 57.7963Z" fill="url(#paint58_linear_1754_28)"/>
<path d="M241.883 49.5426L238.76 48.8102C238.356 48.7099 237.844 48.6095 237.227 48.5041L232.058 47.5837C230.749 47.3178 229.485 47.1648 228.379 47.0318C227.877 46.9691 227.406 46.9115 226.974 46.8513L222.166 46.2444L222.793 41.2681L228.986 42.0507C230.215 42.2012 231.614 42.3742 232.999 42.6576L238.033 43.5556L243.119 19.7331L248.025 20.7816L241.883 49.5426Z" fill="url(#paint59_linear_1754_28)"/>
<path d="M336.014 202.72L335.894 197.89C335.909 196.688 335.786 195.103 335.628 193.096L335.502 191.446C335.046 186.319 334.133 178.361 331.555 168.91C331.351 168.233 331.143 167.486 330.932 166.728C330.491 165.138 330.035 163.493 329.443 161.905L329.35 161.632L326.689 154.386C326.102 152.75 325.392 151.208 324.64 149.577C324.193 148.604 323.742 147.624 323.313 146.625L319.292 139.018C313.285 128.326 305.435 118.175 296.571 109.63C292.467 105.564 287.73 101.599 282.056 97.4832C277.619 94.2075 272.535 91.0622 266.49 87.8568C261.299 85.0126 255.999 82.9258 250.872 80.9093C246.413 79.3793 241.128 77.6487 236.255 76.5878C228.989 74.8822 221.554 73.8086 213.493 73.2995L206.997 73.1214C205.7 73.0963 204.981 73.144 204.918 73.1465L202.425 73.3221L202.059 68.3384L204.549 68.1453C204.549 68.1428 205.435 68.08 207.112 68.1051L213.722 68.2908C222.151 68.82 229.856 69.9336 237.361 71.6943C242.447 72.8029 247.905 74.5887 252.563 76.1864C257.98 78.3158 263.433 80.4602 268.871 83.4424C275.106 86.7507 280.398 90.0239 285.016 93.435C290.885 97.6913 295.816 101.82 300.077 106.043C309.262 114.897 317.421 125.449 323.651 136.53L324.767 138.454L327.855 144.498C328.334 145.61 328.768 146.548 329.197 147.476C329.959 149.136 330.752 150.852 331.381 152.615L332.864 156.337L334.108 160.037C334.81 161.945 335.294 163.693 335.766 165.384C335.969 166.111 336.167 166.826 336.378 167.533C339.079 177.428 340.025 185.682 340.504 191.037L340.629 192.705C340.797 194.842 340.928 196.528 340.91 197.862L341.028 202.6L336.014 202.72Z" fill="url(#paint60_linear_1754_28)"/>
<path d="M351.464 202.432L351.336 197.333C351.349 195.911 351.196 193.972 351.005 191.516L350.9 190.139C350.107 181.173 348.658 172.906 346.478 164.892C346.262 164.167 346.044 163.377 345.821 162.58C345.309 160.754 344.783 158.863 344.108 157.027L342.259 151.73L341.025 148.614C340.348 146.748 339.528 144.965 338.66 143.079C338.189 142.048 337.71 141.01 337.253 139.949L332.741 131.401C326.017 119.442 317.233 108.085 307.323 98.5292C302.678 93.9392 297.376 89.5023 291.088 84.9425C286.062 81.2405 280.368 77.7215 273.669 74.17C268.016 71.0874 262.385 68.8176 256.137 66.3772C251.575 64.8046 245.502 62.798 239.781 61.5389C231.62 59.6252 223.303 58.4238 214.314 57.867L207.062 57.6638C206.511 57.6387 206.102 57.6563 205.771 57.6688L202.096 57.7667L201.961 52.7504L205.588 52.6525C206.042 52.64 206.598 52.6199 207.258 52.6525L214.542 52.8557C223.897 53.4351 232.49 54.6766 240.895 56.648C246.832 57.9523 253.085 60.019 257.865 61.6694C264.135 64.1148 270.168 66.5451 276.042 69.7506C282.937 73.4074 288.836 77.0543 294.048 80.8918C300.529 85.592 306.022 90.1895 310.827 94.9424C321.063 104.81 330.155 116.565 337.1 128.918L338.347 131.08L341.788 137.814C342.3 138.983 342.761 139.989 343.22 140.985C344.09 142.881 344.993 144.84 345.718 146.836L347.812 152.316L348.838 155.361C349.558 157.323 350.115 159.309 350.649 161.228C350.867 162.005 351.081 162.77 351.304 163.523C353.576 171.878 355.076 180.43 355.899 189.726L356.007 191.128C356.207 193.704 356.365 195.738 356.353 197.29L356.481 202.309L351.464 202.432Z" fill="url(#paint61_linear_1754_28)"/>
<path d="M403.424 201.461L403.276 195.464C403.268 193.192 402.997 189.733 402.684 185.722C401.621 173.628 399.652 162.389 396.664 151.386C392.162 134.91 385.872 119.57 377.969 105.798C368.844 89.5824 356.923 74.1672 343.484 61.2001C337.113 54.9322 329.712 48.7396 321.47 42.7752C314.45 37.636 306.715 32.8504 297.806 28.1451C289.742 23.7885 281.585 20.4852 273.971 17.5632C265.373 14.5484 258.049 12.3738 251.656 10.9442C240.487 8.32066 229.19 6.69542 217.096 5.96805C214.021 5.84515 211.392 5.78749 209.318 5.74234L207.301 5.69458C206.541 5.66699 205.932 5.68462 205.453 5.69716L201.415 5.78239L201.314 0.768661L205.307 0.683289C205.884 0.668243 206.607 0.650742 207.467 0.680847L209.428 0.726044C211.528 0.773697 214.186 0.831299 217.349 0.959213C229.779 1.70413 241.352 3.37207 252.777 6.05328C259.338 7.52307 266.845 9.75027 275.701 12.8529C283.542 15.8626 291.876 19.2412 300.168 23.7183C309.275 28.5314 317.214 33.4424 324.42 38.7195C332.857 44.8244 340.452 51.18 346.985 57.6059C360.753 70.8891 372.982 86.7029 382.328 103.319C390.437 117.443 396.89 133.177 401.505 150.066C404.57 161.363 406.592 172.888 407.683 185.308C408.019 189.61 408.285 192.988 408.292 195.391L408.438 201.341L403.424 201.461Z" fill="url(#paint62_linear_1754_28)"/>
<path d="M387.972 201.752L387.831 196.019C387.831 194.027 387.605 191.14 387.319 187.486L387.284 187.037C386.301 175.876 384.488 165.519 381.739 155.401C377.578 140.187 371.782 126.056 364.518 113.412C356.111 98.4639 345.122 84.2551 332.732 72.3013C326.805 66.4673 320.171 60.9168 312.436 55.3161C306.01 50.6058 298.882 46.1964 290.628 41.8322C282.998 37.7013 275.293 34.6339 268.669 32.0806C260.53 29.2363 253.976 27.2951 248.122 25.9908C237.844 23.5755 227.432 22.0781 216.268 21.4034C213.55 21.2955 211.2 21.2429 209.321 21.2002L207.229 21.15C206.534 21.1199 205.98 21.1375 205.539 21.1526L201.628 21.2529L201.498 16.239L205.381 16.1387C205.92 16.1237 206.595 16.1037 207.405 16.1363L209.434 16.1864C211.335 16.229 213.715 16.2817 216.522 16.3946C228.024 17.0893 238.711 18.6269 249.243 21.0999C255.263 22.4418 261.997 24.4357 270.397 27.3727C277.738 30.1994 285.499 33.3497 292.995 37.4079C301.443 41.8775 308.777 46.4122 315.391 51.2605C323.322 57.0041 330.144 62.7151 336.231 68.7096C348.952 80.9795 360.249 95.587 368.88 110.932C376.344 123.927 382.303 138.451 386.58 154.085C389.409 164.494 391.275 175.136 392.283 186.623L392.321 187.097C392.614 190.859 392.847 193.829 392.847 195.956L392.985 201.629L387.972 201.752Z" fill="url(#paint63_linear_1754_28)"/>
</g>
<defs>
<filter id="filter0_d_1754_28" x="0.4375" y="0.664368" width="412" height="412.012" filterUnits="userSpaceOnUse" color-interpolation-filters="sRGB">
<feFlood flood-opacity="0" result="BackgroundImageFix"/>
<feColorMatrix in="SourceAlpha" type="matrix" values="0 0 0 0 0 0 0 0 0 0 0 0 0 0 0 0 0 0 127 0" result="hardAlpha"/>
<feOffset dy="4"/>
<feGaussianBlur stdDeviation="2"/>
<feComposite in2="hardAlpha" operator="out"/>
<feColorMatrix type="matrix" values="0 0 0 0 0.870588 0 0 0 0 0.768627 0 0 0 0 0.360784 0 0 0 0.5 0"/>
<feBlend mode="normal" in2="BackgroundImageFix" result="effect1_dropShadow_1754_28"/>
<feBlend mode="normal" in="SourceGraphic" in2="effect1_dropShadow_1754_28" result="shape"/>
</filter>
<linearGradient id="paint0_linear_1754_28" x1="340.296" y1="299.911" x2="340.263" y2="286.73" gradientUnits="userSpaceOnUse">
<stop stop-color="#D4A75B"/>
<stop offset="0.456731" stop-color="#FCDFAE"/>
<stop offset="1" stop-color="#D4A75B"/>
</linearGradient>
<linearGradient id="paint1_linear_1754_28" x1="330.444" y1="319.611" x2="330.403" y2="305.713" gradientUnits="userSpaceOnUse">
<stop stop-color="#D4A75B"/>
<stop offset="0.456731" stop-color="#FCDFAE"/>
<stop offset="1" stop-color="#D4A75B"/>
</linearGradient>
<linearGradient id="paint2_linear_1754_28" x1="313.321" y1="330.192" x2="313.278" y2="316.25" gradientUnits="userSpaceOnUse">
<stop stop-color="#D4A75B"/>
<stop offset="0.456731" stop-color="#FCDFAE"/>
<stop offset="1" stop-color="#D4A75B"/>
</linearGradient>
<linearGradient id="paint3_linear_1754_28" x1="295.622" y1="349.138" x2="295.568" y2="334.895" gradientUnits="userSpaceOnUse">
<stop stop-color="#D4A75B"/>
<stop offset="0.456731" stop-color="#FCDFAE"/>
<stop offset="1" stop-color="#D4A75B"/>
</linearGradient>
<linearGradient id="paint4_linear_1754_28" x1="277.247" y1="351.824" x2="277.201" y2="338.066" gradientUnits="userSpaceOnUse">
<stop stop-color="#D4A75B"/>
<stop offset="0.456731" stop-color="#FCDFAE"/>
<stop offset="1" stop-color="#D4A75B"/>
</linearGradient>
<linearGradient id="paint5_linear_1754_28" x1="258.517" y1="368.692" x2="258.47" y2="355.065" gradientUnits="userSpaceOnUse">
<stop stop-color="#D4A75B"/>
<stop offset="0.456731" stop-color="#FCDFAE"/>
<stop offset="1" stop-color="#D4A75B"/>
</linearGradient>
<linearGradient id="paint6_linear_1754_28" x1="234.534" y1="363.396" x2="234.496" y2="350.738" gradientUnits="userSpaceOnUse">
<stop stop-color="#D4A75B"/>
<stop offset="0.456731" stop-color="#FCDFAE"/>
<stop offset="1" stop-color="#D4A75B"/>
</linearGradient>
<linearGradient id="paint7_linear_1754_28" x1="217.929" y1="376.986" x2="217.892" y2="364.899" gradientUnits="userSpaceOnUse">
<stop stop-color="#D4A75B"/>
<stop offset="0.456731" stop-color="#FCDFAE"/>
<stop offset="1" stop-color="#D4A75B"/>
</linearGradient>
<linearGradient id="paint8_linear_1754_28" x1="358.277" y1="263.122" x2="358.253" y2="251.586" gradientUnits="userSpaceOnUse">
<stop stop-color="#D4A75B"/>
<stop offset="0.456731" stop-color="#FCDFAE"/>
<stop offset="1" stop-color="#D4A75B"/>
</linearGradient>
<linearGradient id="paint9_linear_1754_28" x1="356.92" y1="282.253" x2="356.89" y2="269.626" gradientUnits="userSpaceOnUse">
<stop stop-color="#D4A75B"/>
<stop offset="0.456731" stop-color="#FCDFAE"/>
<stop offset="1" stop-color="#D4A75B"/>
</linearGradient>
<linearGradient id="paint10_linear_1754_28" x1="365.955" y1="222.134" x2="365.941" y2="213.08" gradientUnits="userSpaceOnUse">
<stop stop-color="#D4A75B"/>
<stop offset="0.456731" stop-color="#FCDFAE"/>
<stop offset="1" stop-color="#D4A75B"/>
</linearGradient>
<linearGradient id="paint11_linear_1754_28" x1="373.321" y1="239.507" x2="373.302" y2="229.068" gradientUnits="userSpaceOnUse">
<stop stop-color="#D4A75B"/>
<stop offset="0.456731" stop-color="#FCDFAE"/>
<stop offset="1" stop-color="#D4A75B"/>
</linearGradient>
<linearGradient id="paint12_linear_1754_28" x1="271.655" y1="283.892" x2="271.55" y2="231.005" gradientUnits="userSpaceOnUse">
<stop stop-color="#D4A75B"/>
<stop offset="0.456731" stop-color="#FCDFAE"/>
<stop offset="1" stop-color="#D4A75B"/>
</linearGradient>
<linearGradient id="paint13_linear_1754_28" x1="279.345" y1="293.343" x2="279.228" y2="234.494" gradientUnits="userSpaceOnUse">
<stop stop-color="#D4A75B"/>
<stop offset="0.456731" stop-color="#FCDFAE"/>
<stop offset="1" stop-color="#D4A75B"/>
</linearGradient>
<linearGradient id="paint14_linear_1754_28" x1="305.042" y1="325.104" x2="304.886" y2="246.219" gradientUnits="userSpaceOnUse">
<stop stop-color="#D4A75B"/>
<stop offset="0.456731" stop-color="#FCDFAE"/>
<stop offset="1" stop-color="#D4A75B"/>
</linearGradient>
<linearGradient id="paint15_linear_1754_28" x1="297.395" y1="315.659" x2="297.251" y2="242.733" gradientUnits="userSpaceOnUse">
<stop stop-color="#D4A75B"/>
<stop offset="0.456731" stop-color="#FCDFAE"/>
<stop offset="1" stop-color="#D4A75B"/>
</linearGradient>
<linearGradient id="paint16_linear_1754_28" x1="112.862" y1="339.42" x2="112.844" y2="328.682" gradientUnits="userSpaceOnUse">
<stop stop-color="#D4A75B"/>
<stop offset="0.456731" stop-color="#FCDFAE"/>
<stop offset="1" stop-color="#D4A75B"/>
</linearGradient>
<linearGradient id="paint17_linear_1754_28" x1="93.3515" y1="329.327" x2="93.3377" y2="319.637" gradientUnits="userSpaceOnUse">
<stop stop-color="#D4A75B"/>
<stop offset="0.456731" stop-color="#FCDFAE"/>
<stop offset="1" stop-color="#D4A75B"/>
</linearGradient>
<linearGradient id="paint18_linear_1754_28" x1="82.7437" y1="312.09" x2="82.7313" y2="302.882" gradientUnits="userSpaceOnUse">
<stop stop-color="#D4A75B"/>
<stop offset="0.456731" stop-color="#FCDFAE"/>
<stop offset="1" stop-color="#D4A75B"/>
</linearGradient>
<linearGradient id="paint19_linear_1754_28" x1="63.8802" y1="293.998" x2="63.8718" y2="286.326" gradientUnits="userSpaceOnUse">
<stop stop-color="#D4A75B"/>
<stop offset="0.456731" stop-color="#FCDFAE"/>
<stop offset="1" stop-color="#D4A75B"/>
</linearGradient>
<linearGradient id="paint20_linear_1754_28" x1="61.034" y1="275.855" x2="61.0234" y2="267.406" gradientUnits="userSpaceOnUse">
<stop stop-color="#D4A75B"/>
<stop offset="0.456731" stop-color="#FCDFAE"/>
<stop offset="1" stop-color="#D4A75B"/>
</linearGradient>
<linearGradient id="paint21_linear_1754_28" x1="44.1209" y1="257.03" x2="44.1109" y2="248.886" gradientUnits="userSpaceOnUse">
<stop stop-color="#D4A75B"/>
<stop offset="0.456731" stop-color="#FCDFAE"/>
<stop offset="1" stop-color="#D4A75B"/>
</linearGradient>
<linearGradient id="paint22_linear_1754_28" x1="49.1315" y1="233.189" x2="49.1196" y2="224.581" gradientUnits="userSpaceOnUse">
<stop stop-color="#D4A75B"/>
<stop offset="0.456731" stop-color="#FCDFAE"/>
<stop offset="1" stop-color="#D4A75B"/>
</linearGradient>
<linearGradient id="paint23_linear_1754_28" x1="35.3716" y1="216.43" x2="35.3606" y2="208.361" gradientUnits="userSpaceOnUse">
<stop stop-color="#D4A75B"/>
<stop offset="0.456731" stop-color="#FCDFAE"/>
<stop offset="1" stop-color="#D4A75B"/>
</linearGradient>
<linearGradient id="paint24_linear_1754_28" x1="149.231" y1="357.581" x2="149.207" y2="345.995" gradientUnits="userSpaceOnUse">
<stop stop-color="#D4A75B"/>
<stop offset="0.456731" stop-color="#FCDFAE"/>
<stop offset="1" stop-color="#D4A75B"/>
</linearGradient>
<linearGradient id="paint25_linear_1754_28" x1="130.399" y1="356.141" x2="130.379" y2="345.051" gradientUnits="userSpaceOnUse">
<stop stop-color="#D4A75B"/>
<stop offset="0.456731" stop-color="#FCDFAE"/>
<stop offset="1" stop-color="#D4A75B"/>
</linearGradient>
<linearGradient id="paint26_linear_1754_28" x1="189.574" y1="365.232" x2="189.543" y2="353.586" gradientUnits="userSpaceOnUse">
<stop stop-color="#D4A75B"/>
<stop offset="0.456731" stop-color="#FCDFAE"/>
<stop offset="1" stop-color="#D4A75B"/>
</linearGradient>
<linearGradient id="paint27_linear_1754_28" x1="172.57" y1="372.628" x2="172.544" y2="360.973" gradientUnits="userSpaceOnUse">
<stop stop-color="#D4A75B"/>
<stop offset="0.456731" stop-color="#FCDFAE"/>
<stop offset="1" stop-color="#D4A75B"/>
</linearGradient>
<linearGradient id="paint28_linear_1754_28" x1="139.377" y1="282.275" x2="139.262" y2="227.777" gradientUnits="userSpaceOnUse">
<stop stop-color="#D4A75B"/>
<stop offset="0.456731" stop-color="#FCDFAE"/>
<stop offset="1" stop-color="#D4A75B"/>
</linearGradient>
<linearGradient id="paint29_linear_1754_28" x1="131.52" y1="291.534" x2="131.393" y2="230.898" gradientUnits="userSpaceOnUse">
<stop stop-color="#D4A75B"/>
<stop offset="0.456731" stop-color="#FCDFAE"/>
<stop offset="1" stop-color="#D4A75B"/>
</linearGradient>
<linearGradient id="paint30_linear_1754_28" x1="105.119" y1="322.662" x2="104.948" y2="241.371" gradientUnits="userSpaceOnUse">
<stop stop-color="#D4A75B"/>
<stop offset="0.456731" stop-color="#FCDFAE"/>
<stop offset="1" stop-color="#D4A75B"/>
</linearGradient>
<linearGradient id="paint31_linear_1754_28" x1="112.976" y1="313.413" x2="112.818" y2="238.269" gradientUnits="userSpaceOnUse">
<stop stop-color="#D4A75B"/>
<stop offset="0.456731" stop-color="#FCDFAE"/>
<stop offset="1" stop-color="#D4A75B"/>
</linearGradient>
<linearGradient id="paint32_linear_1754_28" x1="72.0605" y1="113.292" x2="72.0276" y2="100.142" gradientUnits="userSpaceOnUse">
<stop stop-color="#D4A75B"/>
<stop offset="0.456731" stop-color="#FCDFAE"/>
<stop offset="1" stop-color="#D4A75B"/>
</linearGradient>
<linearGradient id="paint33_linear_1754_28" x1="81.6726" y1="93.9773" x2="81.6321" y2="80.1009" gradientUnits="userSpaceOnUse">
<stop stop-color="#D4A75B"/>
<stop offset="0.456731" stop-color="#FCDFAE"/>
<stop offset="1" stop-color="#D4A75B"/>
</linearGradient>
<linearGradient id="paint34_linear_1754_28" x1="98.7955" y1="83.2074" x2="98.7525" y2="69.2669" gradientUnits="userSpaceOnUse">
<stop stop-color="#D4A75B"/>
<stop offset="0.456731" stop-color="#FCDFAE"/>
<stop offset="1" stop-color="#D4A75B"/>
</linearGradient>
<linearGradient id="paint35_linear_1754_28" x1="116.305" y1="64.4338" x2="116.252" y2="50.1801" gradientUnits="userSpaceOnUse">
<stop stop-color="#D4A75B"/>
<stop offset="0.456731" stop-color="#FCDFAE"/>
<stop offset="1" stop-color="#D4A75B"/>
</linearGradient>
<linearGradient id="paint36_linear_1754_28" x1="134.587" y1="61.2386" x2="134.542" y2="47.4568" gradientUnits="userSpaceOnUse">
<stop stop-color="#D4A75B"/>
<stop offset="0.456731" stop-color="#FCDFAE"/>
<stop offset="1" stop-color="#D4A75B"/>
</linearGradient>
<linearGradient id="paint37_linear_1754_28" x1="153.376" y1="44.2275" x2="153.329" y2="30.5748" gradientUnits="userSpaceOnUse">
<stop stop-color="#D4A75B"/>
<stop offset="0.456731" stop-color="#FCDFAE"/>
<stop offset="1" stop-color="#D4A75B"/>
</linearGradient>
<linearGradient id="paint38_linear_1754_28" x1="177.204" y1="48.84" x2="177.165" y2="36.144" gradientUnits="userSpaceOnUse">
<stop stop-color="#D4A75B"/>
<stop offset="0.456731" stop-color="#FCDFAE"/>
<stop offset="1" stop-color="#D4A75B"/>
</linearGradient>
<linearGradient id="paint39_linear_1754_28" x1="193.878" y1="34.8531" x2="193.84" y2="22.7" gradientUnits="userSpaceOnUse">
<stop stop-color="#D4A75B"/>
<stop offset="0.456731" stop-color="#FCDFAE"/>
<stop offset="1" stop-color="#D4A75B"/>
</linearGradient>
<linearGradient id="paint40_linear_1754_28" x1="54.3086" y1="149.348" x2="54.2854" y2="137.872" gradientUnits="userSpaceOnUse">
<stop stop-color="#D4A75B"/>
<stop offset="0.456731" stop-color="#FCDFAE"/>
<stop offset="1" stop-color="#D4A75B"/>
</linearGradient>
<linearGradient id="paint41_linear_1754_28" x1="55.3479" y1="130.829" x2="55.3186" y2="118.244" gradientUnits="userSpaceOnUse">
<stop stop-color="#D4A75B"/>
<stop offset="0.456731" stop-color="#FCDFAE"/>
<stop offset="1" stop-color="#D4A75B"/>
</linearGradient>
<linearGradient id="paint42_linear_1754_28" x1="46.983" y1="189.083" x2="46.9688" y2="180.098" gradientUnits="userSpaceOnUse">
<stop stop-color="#D4A75B"/>
<stop offset="0.456731" stop-color="#FCDFAE"/>
<stop offset="1" stop-color="#D4A75B"/>
</linearGradient>
<linearGradient id="paint43_linear_1754_28" x1="39.3701" y1="172.508" x2="39.3513" y2="162.149" gradientUnits="userSpaceOnUse">
<stop stop-color="#D4A75B"/>
<stop offset="0.456731" stop-color="#FCDFAE"/>
<stop offset="1" stop-color="#D4A75B"/>
</linearGradient>
<linearGradient id="paint44_linear_1754_28" x1="140.973" y1="149.943" x2="140.866" y2="96.6829" gradientUnits="userSpaceOnUse">
<stop stop-color="#D4A75B"/>
<stop offset="0.456731" stop-color="#FCDFAE"/>
<stop offset="1" stop-color="#D4A75B"/>
</linearGradient>
<linearGradient id="paint45_linear_1754_28" x1="133.302" y1="143.709" x2="133.183" y2="84.4474" gradientUnits="userSpaceOnUse">
<stop stop-color="#D4A75B"/>
<stop offset="0.456731" stop-color="#FCDFAE"/>
<stop offset="1" stop-color="#D4A75B"/>
</linearGradient>
<linearGradient id="paint46_linear_1754_28" x1="107.5" y1="122.743" x2="107.34" y2="43.306" gradientUnits="userSpaceOnUse">
<stop stop-color="#D4A75B"/>
<stop offset="0.456731" stop-color="#FCDFAE"/>
<stop offset="1" stop-color="#D4A75B"/>
</linearGradient>
<linearGradient id="paint47_linear_1754_28" x1="115.17" y1="128.98" x2="115.022" y2="55.5425" gradientUnits="userSpaceOnUse">
<stop stop-color="#D4A75B"/>
<stop offset="0.456731" stop-color="#FCDFAE"/>
<stop offset="1" stop-color="#D4A75B"/>
</linearGradient>
<linearGradient id="paint48_linear_1754_28" x1="296.099" y1="68.9377" x2="296.081" y2="58.0369" gradientUnits="userSpaceOnUse">
<stop stop-color="#D4A75B"/>
<stop offset="0.456731" stop-color="#FCDFAE"/>
<stop offset="1" stop-color="#D4A75B"/>
</linearGradient>
<linearGradient id="paint49_linear_1754_28" x1="315.61" y1="77.5395" x2="315.596" y2="67.6595" gradientUnits="userSpaceOnUse">
<stop stop-color="#D4A75B"/>
<stop offset="0.456731" stop-color="#FCDFAE"/>
<stop offset="1" stop-color="#D4A75B"/>
</linearGradient>
<linearGradient id="paint50_linear_1754_28" x1="327.035" y1="94.5954" x2="327.022" y2="85.1835" gradientUnits="userSpaceOnUse">
<stop stop-color="#D4A75B"/>
<stop offset="0.456731" stop-color="#FCDFAE"/>
<stop offset="1" stop-color="#D4A75B"/>
</linearGradient>
<linearGradient id="paint51_linear_1754_28" x1="346.032" y1="111.02" x2="346.023" y2="103.063" gradientUnits="userSpaceOnUse">
<stop stop-color="#D4A75B"/>
<stop offset="0.456731" stop-color="#FCDFAE"/>
<stop offset="1" stop-color="#D4A75B"/>
</linearGradient>
<linearGradient id="paint52_linear_1754_28" x1="349.896" y1="129.186" x2="349.886" y2="120.799" gradientUnits="userSpaceOnUse">
<stop stop-color="#D4A75B"/>
<stop offset="0.456731" stop-color="#FCDFAE"/>
<stop offset="1" stop-color="#D4A75B"/>
</linearGradient>
<linearGradient id="paint53_linear_1754_28" x1="367.043" y1="147.949" x2="367.033" y2="139.815" gradientUnits="userSpaceOnUse">
<stop stop-color="#D4A75B"/>
<stop offset="0.456731" stop-color="#FCDFAE"/>
<stop offset="1" stop-color="#D4A75B"/>
</linearGradient>
<linearGradient id="paint54_linear_1754_28" x1="362.95" y1="171.426" x2="362.938" y2="162.831" gradientUnits="userSpaceOnUse">
<stop stop-color="#D4A75B"/>
<stop offset="0.456731" stop-color="#FCDFAE"/>
<stop offset="1" stop-color="#D4A75B"/>
</linearGradient>
<linearGradient id="paint55_linear_1754_28" x1="377.388" y1="189.284" x2="377.379" y2="182.181" gradientUnits="userSpaceOnUse">
<stop stop-color="#D4A75B"/>
<stop offset="0.456731" stop-color="#FCDFAE"/>
<stop offset="1" stop-color="#D4A75B"/>
</linearGradient>
<linearGradient id="paint56_linear_1754_28" x1="259.08" y1="52.4568" x2="259.055" y2="40.8376" gradientUnits="userSpaceOnUse">
<stop stop-color="#D4A75B"/>
<stop offset="0.456731" stop-color="#FCDFAE"/>
<stop offset="1" stop-color="#D4A75B"/>
</linearGradient>
<linearGradient id="paint57_linear_1754_28" x1="277.799" y1="52.5866" x2="277.779" y2="41.402" gradientUnits="userSpaceOnUse">
<stop stop-color="#D4A75B"/>
<stop offset="0.456731" stop-color="#FCDFAE"/>
<stop offset="1" stop-color="#D4A75B"/>
</linearGradient>
<linearGradient id="paint58_linear_1754_28" x1="218.502" y1="46.1167" x2="218.471" y2="34.5381" gradientUnits="userSpaceOnUse">
<stop stop-color="#D4A75B"/>
<stop offset="0.456731" stop-color="#FCDFAE"/>
<stop offset="1" stop-color="#D4A75B"/>
</linearGradient>
<linearGradient id="paint59_linear_1754_28" x1="235.116" y1="37.7298" x2="235.089" y2="26.019" gradientUnits="userSpaceOnUse">
<stop stop-color="#D4A75B"/>
<stop offset="0.456731" stop-color="#FCDFAE"/>
<stop offset="1" stop-color="#D4A75B"/>
</linearGradient>
<linearGradient id="paint60_linear_1754_28" x1="271.655" y1="149.373" x2="271.55" y2="96.4866" gradientUnits="userSpaceOnUse">
<stop stop-color="#D4A75B"/>
<stop offset="0.456731" stop-color="#FCDFAE"/>
<stop offset="1" stop-color="#D4A75B"/>
</linearGradient>
<linearGradient id="paint61_linear_1754_28" x1="279.345" y1="143.071" x2="279.228" y2="84.2224" gradientUnits="userSpaceOnUse">
<stop stop-color="#D4A75B"/>
<stop offset="0.456731" stop-color="#FCDFAE"/>
<stop offset="1" stop-color="#D4A75B"/>
</linearGradient>
<linearGradient id="paint62_linear_1754_28" x1="305.042" y1="121.89" x2="304.886" y2="43.0062" gradientUnits="userSpaceOnUse">
<stop stop-color="#D4A75B"/>
<stop offset="0.456731" stop-color="#FCDFAE"/>
<stop offset="1" stop-color="#D4A75B"/>
</linearGradient>
<linearGradient id="paint63_linear_1754_28" x1="297.395" y1="128.19" x2="297.251" y2="55.2631" gradientUnits="userSpaceOnUse">
<stop stop-color="#D4A75B"/>
<stop offset="0.456731" stop-color="#FCDFAE"/>
<stop offset="1" stop-color="#D4A75B"/>
</linearGradient>
</defs>
</svg>
