<svg width="1214" height="1298" viewBox="0 0 1214 1298" fill="none" xmlns="http://www.w3.org/2000/svg">
<g opacity="0.24">
<path d="M452.475 853.094C452.319 862.407 465.788 1095.1 465.788 1095.1L512.25 1156.1L568.975 1113.69L700.689 1145.27L846.295 856.491L842.626 769.202L589.382 785.693L452.475 853.094Z" fill="#CA6702"/>
<path d="M875.496 363.355L702.844 205.082L575.455 172.978L437.765 190.415L405.106 245.939L556.297 505.816L569.529 564.539L563.972 636.978L532.278 717.2L885.34 653.246L908.699 594.122L875.496 363.355Z" fill="#EE9B00"/>
<g opacity="0.3">
<path d="M505.066 290.857L568.115 319.336L658.03 455.05L679.611 641.441L640.123 697.664L532.28 717.196L563.974 636.973L569.531 564.535L556.298 505.811L552.341 499.008L505.066 290.857Z" fill="#6B0504"/>
</g>
<path d="M405.635 239.426C405.635 239.426 366.116 159.612 368.391 156.901C370.663 154.194 487.119 102.835 487.119 102.835L609.968 90.0673L790.89 161.546L900.616 285.434L962.295 436.618L947.797 640.651L885.344 653.239L864.988 451.664L665.803 229.926L637.726 223.641L616.154 210.31L436.124 219.726L405.635 239.426Z" fill="#005F73"/>
<path d="M447.669 782.049C449.915 778.128 539.937 711.518 539.937 711.518L908.486 643.156L940.756 646.289L793.566 696.325L574.543 745.627L447.669 782.049Z" fill="#CA6702"/>
<path d="M452.007 857.004L447.669 782.049L595.816 719.17L940.756 646.289L961.204 719.281C961.204 719.281 822.85 790.838 675.064 825.01C527.28 859.178 452.007 857.004 452.007 857.004Z" fill="#0A9396"/>
<path d="M1012.36 787.572L961.205 719.28L819.269 780.795L702.475 1145.97L729.691 1255.29L812.34 1254.29L1012.36 787.572Z" fill="#EE9B00"/>
<g opacity="0.3">
<path d="M515.181 768.055L570.92 1059.87L570.754 1114.39L512.251 1156.1L465.789 1095.1L447.669 782.048L515.181 768.055Z" fill="#6B0504"/>
</g>
<g opacity="0.3">
<path d="M962.288 436.62L882.865 298.717L784.729 180.606L611.154 112.03L488.405 124.647L374.795 167.796L368.465 156.404L413.428 135.674L487.114 102.831L609.963 90.0634L790.884 161.542L900.611 285.43L962.288 436.62Z" fill="#FBFFFE" fill-opacity="0.71"/>
</g>
<path d="M962.287 436.622C962.235 436.653 961.699 435.837 960.704 434.217C959.641 432.462 958.203 430.068 956.366 427.022C952.542 420.524 947.06 411.224 940.1 399.399C926.091 375.304 906.112 340.957 881.879 299.292L881.989 299.451C853.616 265.409 820.032 225.111 783.671 181.493L784.221 181.894C766.228 174.791 747.418 167.365 728.245 159.796C686.893 143.43 647.237 127.728 610.67 113.258L611.288 113.341C565.217 117.971 523.632 122.151 488.51 125.682L488.771 125.618C453.346 138.923 424.583 149.723 404.509 157.259C394.65 160.89 386.932 163.738 381.515 165.732C378.982 166.632 376.993 167.337 375.506 167.867C374.147 168.332 373.44 168.548 373.419 168.499C373.403 168.452 374.073 168.141 375.399 167.583C376.867 166.988 378.818 166.187 381.304 165.171C386.678 163.056 394.332 160.034 404.107 156.179C424.103 148.433 452.751 137.34 488.041 123.677L488.164 123.628L488.302 123.613C523.401 119.923 564.972 115.56 611.017 110.718L611.337 110.683L611.635 110.801C648.22 125.226 687.898 140.873 729.269 157.189C748.438 164.768 767.244 172.204 785.233 179.317L785.562 179.447L785.788 179.72C822.012 223.451 855.475 263.851 883.738 297.982L883.805 298.061L883.853 298.143C907.731 340.008 927.417 374.527 941.225 398.737C947.959 410.698 953.257 420.098 956.953 426.672C958.669 429.792 960.011 432.239 961.001 434.035C961.903 435.716 962.34 436.591 962.287 436.622Z" fill="#6B0504"/>
<path d="M651.385 452.429C651.633 453.201 634.69 459.094 614.281 467.523C593.84 475.899 577.662 483.632 577.291 482.91C577.122 482.578 580.959 480.213 587.413 476.849C593.862 473.483 602.952 469.174 613.221 464.945C623.49 460.727 632.983 457.395 639.931 455.245C646.88 453.09 651.273 452.073 651.385 452.429Z" fill="#6B0504"/>
<path d="M505.066 290.86C505.084 290.815 505.482 290.944 506.231 291.234C507.129 291.6 508.216 292.041 509.542 292.576C512.644 293.906 516.854 295.713 522.17 297.997C533.332 302.92 549.09 309.877 568.52 318.446L568.775 318.558L568.933 318.799C592.132 353.624 623.906 401.315 659.198 454.282L659.383 454.557L659.424 454.89C659.747 457.672 660.096 460.666 660.444 463.677C668.446 534.402 675.631 597.91 680.546 641.336L680.589 641.692L680.385 641.975C669.186 657.612 660.188 670.169 653.832 679.042C650.794 683.191 648.386 686.473 646.606 688.908C644.938 691.134 644.033 692.273 643.961 692.222C643.889 692.17 644.649 690.933 646.178 688.606C647.863 686.105 650.131 682.728 653.007 678.463C659.197 669.472 667.961 656.748 678.866 640.908L678.706 641.547C673.567 598.149 666.051 534.676 657.683 463.991C657.335 460.98 656.986 457.986 656.668 455.206L656.889 455.812C621.872 402.659 590.343 354.812 567.319 319.866L567.728 320.217C548.451 311.306 532.811 304.078 521.743 298.963C516.515 296.483 512.378 294.52 509.328 293.073C508.048 292.435 507 291.912 506.133 291.483C505.403 291.114 505.044 290.903 505.066 290.86Z" fill="#6B0504"/>
<path d="M863.531 457.146C863.446 457.319 860.549 456.094 855.38 453.73C849.805 451.107 842.475 447.652 833.618 443.485C815.295 434.726 790.074 422.452 762.289 408.739C758.662 406.944 755.081 405.178 751.704 403.51L752.93 403.51C727.548 415.94 704.946 426.859 688.647 434.591C680.803 438.252 674.328 441.274 669.371 443.589C664.813 445.652 662.278 446.706 662.197 446.547C662.117 446.383 664.504 445.023 668.921 442.674C673.784 440.161 680.134 436.883 687.824 432.913C703.901 424.736 726.357 413.518 751.709 401.018L752.322 400.719L752.935 401.019C756.315 402.682 759.901 404.45 763.526 406.234C791.311 419.947 816.393 432.499 834.497 441.713C843.19 446.207 850.394 449.923 855.869 452.754C860.88 455.419 863.617 456.972 863.531 457.146Z" fill="#6B0504"/>
<path d="M649.362 233.466C649.919 233.997 632.187 253.647 609.754 277.359C587.313 301.074 568.677 319.866 568.114 319.338C567.557 318.807 585.287 299.162 607.73 275.442C630.156 251.733 648.799 232.939 649.362 233.466Z" fill="#6B0504"/>
<path d="M426.36 230.208C425.612 230.396 420.844 213.794 415.713 193.144C410.58 172.482 407.027 155.589 407.775 155.401C408.523 155.213 413.288 171.808 418.421 192.47C423.556 213.127 427.106 230.025 426.36 230.208Z" fill="#6B0504"/>
<path d="M470.53 227.421C469.776 227.566 465.337 207.668 460.622 182.99C455.906 158.301 452.698 138.175 453.452 138.029C454.206 137.884 458.641 157.775 463.363 182.466C468.078 207.144 471.284 227.275 470.53 227.421Z" fill="#6B0504"/>
<path d="M506.534 223.311C505.769 223.394 502.735 201.034 499.762 173.376C496.787 145.707 494.995 123.221 495.759 123.137C496.524 123.053 499.559 145.409 502.534 173.078C505.508 200.736 507.298 223.227 506.534 223.311Z" fill="#6B0504"/>
<path d="M546.414 216.08C545.646 216.099 544.473 194.203 543.8 167.178C543.13 140.148 543.207 118.222 543.979 118.205C544.747 118.186 545.917 140.075 546.591 167.112C547.26 194.13 547.181 216.061 546.414 216.08Z" fill="#6B0504"/>
<path d="M593.371 115.33C593.776 115.369 593.585 120.908 593.294 129.851C593.003 138.794 592.687 151.136 592.788 164.771C592.899 178.41 593.403 190.748 593.834 199.683C594.261 208.616 594.537 214.155 594.135 214.197C593.773 214.239 592.805 208.76 591.871 199.828C590.93 190.9 590.111 178.501 589.999 164.792C589.899 151.082 590.526 138.679 591.325 129.735C592.125 120.786 593.01 115.296 593.371 115.33Z" fill="#6B0504"/>
<path d="M622.075 222.859C621.344 222.61 627.611 202.214 636.065 177.304C644.523 152.383 651.97 132.396 652.701 132.644C653.432 132.893 647.167 153.284 638.709 178.204C630.25 203.113 622.806 223.107 622.075 222.859Z" fill="#6B0504"/>
<path d="M707.347 149.797C707.688 150.013 704.99 154.786 700.637 162.481C696.284 170.176 690.344 180.838 684.159 192.807C677.981 204.785 672.729 215.805 668.98 223.807C665.226 231.808 662.901 236.775 662.522 236.625C662.184 236.491 663.865 231.259 667.166 223.022C670.466 214.784 675.461 203.571 681.676 191.527C687.894 179.489 694.141 168.926 698.942 161.466C703.751 154.002 707.039 149.601 707.347 149.797Z" fill="#6B0504"/>
<path d="M782.148 179.721C782.355 180.073 777.182 183.459 768.887 189.004C760.593 194.549 749.24 202.34 737.067 211.449C724.9 220.572 714.228 229.277 706.578 235.681C698.926 242.079 694.224 246.095 693.945 245.795C693.699 245.53 697.928 241.005 705.28 234.201C712.628 227.395 723.163 218.394 735.397 209.218C747.638 200.055 759.235 192.475 767.83 187.337C776.424 182.199 781.965 179.412 782.148 179.721Z" fill="#6B0504"/>
<path d="M813.621 220.136C813.824 220.452 808.955 223.959 800.825 229.217C792.696 234.476 781.282 241.46 768.422 248.737C755.557 256.012 743.691 262.201 734.995 266.459C726.299 270.716 720.792 273.084 720.623 272.752C720.446 272.4 725.634 269.411 734.082 264.716C743.302 259.571 754.576 253.275 767.048 246.311C779.435 239.21 790.639 232.788 799.796 227.538C808.175 222.712 813.409 219.799 813.621 220.136Z" fill="#6B0504"/>
<path d="M847.695 262.221C848.084 262.882 828.164 275.35 803.203 290.065C778.236 304.784 757.682 316.173 757.294 315.507C756.905 314.846 776.819 302.381 801.786 287.663C826.744 272.952 847.3 261.559 847.695 262.221Z" fill="#6B0504"/>
<path d="M884.364 302.805C884.59 303.107 880.322 306.754 873.14 312.283C865.962 317.814 855.845 325.201 844.407 332.976C832.963 340.749 822.372 347.442 814.59 352.084C806.808 356.726 801.842 359.353 801.646 359.034C801.439 358.699 806.032 355.481 813.53 350.422C821.81 344.842 831.799 338.113 842.839 330.676C853.817 323.15 863.746 316.339 871.981 310.696C879.445 305.578 884.127 302.487 884.364 302.805Z" fill="#6B0504"/>
<path d="M907.417 346.065C907.659 346.339 904.328 349.774 898.558 354.917C892.791 360.055 884.549 366.853 875.056 373.842C865.553 380.827 856.614 386.676 849.993 390.653C843.372 394.63 839.101 396.795 838.91 396.478C838.7 396.136 842.604 393.382 848.92 388.997C855.241 384.613 863.956 378.543 873.404 371.594C882.848 364.643 891.231 358.131 897.298 353.4C903.365 348.668 907.15 345.764 907.417 346.065Z" fill="#6B0504"/>
<path d="M959.321 434.797C959.209 435.185 953.077 433.695 943.189 431.309C933.3 428.922 919.623 425.718 904.423 422.638C889.213 419.566 875.365 417.204 865.325 415.564C855.288 413.919 849.062 412.916 849.106 412.513C849.146 412.149 855.454 412.464 865.594 413.615C875.732 414.758 889.697 416.826 904.97 419.912C920.239 423.007 933.902 426.523 943.693 429.406C953.49 432.286 959.425 434.447 959.321 434.797Z" fill="#6B0504"/>
<path d="M307.718 438.256L340.209 264.838L412.873 240.748L505.068 290.86L596.373 430.693L565.108 480.52L493.537 588.608L419.67 707.639L351.423 707.958L308.695 669.627L322.659 441.251L307.718 438.256Z" fill="#CA6702"/>
<path d="M340.207 264.836L328.097 140.133L355.318 131.384L412.871 240.746L415.233 246.982L340.207 264.836Z" fill="#CA6702"/>
<g opacity="0.3">
<path d="M331.98 382.932L390.45 414.445L375.662 451.877L307.717 438.254L331.98 382.932Z" fill="#6B0504"/>
</g>
<g opacity="0.3">
<path d="M525.867 540.889L413.347 526.873L379.434 459.38L396.813 544.382L493.534 588.607L525.867 540.889Z" fill="#6B0504"/>
</g>
<g opacity="0.3">
<path d="M308.693 669.625L342.435 645.509C342.435 645.509 421.896 681.711 420.664 684.829C419.432 687.947 419.669 707.636 419.669 707.636L351.421 707.956L308.693 669.625Z" fill="#6B0504"/>
</g>
<path d="M307.716 438.254C307.744 438.127 309.477 438.345 312.696 438.869C316.283 439.497 320.913 440.313 326.6 441.31C338.957 443.658 355.856 446.868 375.898 450.681L374.526 451.428C378.512 441.222 382.905 429.972 387.545 418.095L387.581 418.005L387.641 417.897C392.223 409.929 397.009 401.605 401.925 393.067C420.131 360.947 435.722 331.382 446.401 309.688C451.72 298.833 455.837 289.957 458.642 283.804C459.925 280.965 460.989 278.621 461.855 276.706C462.618 275.096 463.062 274.264 463.152 274.299C463.242 274.334 462.972 275.236 462.376 276.918C461.638 278.889 460.736 281.303 459.644 284.228C457.137 290.528 453.285 299.55 448.177 310.54C437.934 332.503 422.583 362.278 404.354 394.441C399.49 403.034 394.683 411.368 389.987 419.29L390.081 419.097C385.35 430.938 380.868 442.153 376.802 452.328L376.417 453.287L375.423 453.078C355.457 448.87 338.629 445.319 326.324 442.721C320.693 441.452 316.104 440.417 312.552 439.612C309.375 438.852 307.692 438.389 307.716 438.254Z" fill="#6B0504"/>
<path d="M340.206 264.838C340.152 264.684 342.037 263.892 345.54 262.575C349.521 261.142 354.553 259.335 360.609 257.156C373.479 252.636 391.592 246.449 412.435 239.459L411.66 241.376C408.168 234.767 404.478 227.782 400.674 220.589C387.804 196.133 376.289 173.917 368.08 157.775C364.206 150.032 360.983 143.587 358.487 138.593C356.275 134.034 355.134 131.47 355.307 131.383C355.475 131.293 356.942 133.687 359.448 138.086C362.153 142.972 365.638 149.279 369.825 156.858C378.482 172.768 390.27 194.833 403.14 219.289C406.916 226.493 410.585 233.488 414.055 240.111L414.8 241.534L413.283 242.034C392.392 248.885 374.169 254.739 361.148 258.808C354.989 260.682 349.877 262.238 345.827 263.466C342.24 264.502 340.259 264.997 340.206 264.838Z" fill="#6B0504"/>
<path d="M908.487 643.154C908.487 643.154 908.03 641.787 907.292 639.094C906.542 636.299 905.474 632.312 904.082 627.121C901.303 616.488 897.248 600.984 892.053 581.104C881.731 541.076 866.865 483.441 848.595 412.616L848.858 413.089C803.945 366.397 750.468 310.805 691.844 249.863L692.353 250.191C660.358 238.812 626.864 226.897 592.452 214.655L593.119 214.717C559.549 219.829 524.411 225.179 488.616 230.633C463.064 234.514 437.848 238.348 413.078 242.117L413.529 239.532C445.109 256.713 475.902 273.468 505.699 289.68L505.998 289.844L506.184 290.131C538.71 340.042 569.342 387.04 597.366 430.042L597.788 430.692L597.371 431.34C571.298 471.943 547.635 508.793 526.687 541.425L526.354 541.949L525.739 541.873C480.909 536.162 443.098 531.341 413.257 527.539L412.9 527.495L412.743 527.18C400.66 502.828 391.344 484.054 385.002 471.276C381.918 464.973 379.567 460.168 377.936 456.835C376.369 453.584 375.646 451.888 375.646 451.888C375.646 451.888 376.579 453.477 378.251 456.677C379.949 459.974 382.407 464.728 385.621 470.962C392.092 483.676 401.595 502.356 413.924 526.581L413.416 526.219C443.276 529.857 481.108 534.462 525.974 539.922L525.027 540.365C545.873 507.671 569.412 470.742 595.352 430.052L595.357 431.35C567.256 388.398 536.54 341.454 503.922 291.598L504.404 292.042C474.591 275.852 443.789 259.122 412.192 241.969L408.57 240.002L412.644 239.383C437.414 235.614 462.627 231.773 488.177 227.88C523.973 222.438 559.118 217.102 592.683 212L593.027 211.945L593.355 212.063C627.756 224.336 661.241 236.287 693.224 247.696L693.522 247.802L693.738 248.026C752.216 309.106 805.563 364.825 850.366 411.617L850.562 411.821L850.629 412.089C868.515 483.011 883.073 540.726 893.177 580.811C898.134 600.753 902.004 616.304 904.655 626.967C905.918 632.194 906.89 636.206 907.569 639.019C908.238 641.742 908.487 643.154 908.487 643.154Z" fill="#6B0504"/>
<path d="M957.629 475.883C957.486 476.639 935.562 473.056 908.682 467.884C881.784 462.71 860.109 457.901 860.252 457.146C860.395 456.39 882.314 459.971 909.206 465.142C936.09 470.322 957.777 475.13 957.629 475.883Z" fill="#6B0504"/>
<path d="M955.71 518.351C955.577 519.11 936.771 516.454 913.717 512.425C890.653 508.392 872.068 504.51 872.201 503.75C872.334 502.991 891.134 505.645 914.198 509.678C937.252 513.708 955.843 517.592 955.71 518.351Z" fill="#6B0504"/>
<path d="M950.281 555.09C950.196 555.857 935.428 554.819 917.301 552.777C899.169 550.732 884.542 548.46 884.627 547.693C884.711 546.926 899.48 547.964 917.611 550.008C935.735 552.044 950.365 554.323 950.281 555.09Z" fill="#6B0504"/>
<path d="M949.328 590.339C949.306 591.108 937.194 591.39 922.282 590.963C907.363 590.539 895.29 589.57 895.312 588.801C895.333 588.032 907.438 587.753 922.36 588.172C937.277 588.601 949.35 589.57 949.328 590.339Z" fill="#6B0504"/>
<path d="M339.543 645.918C338.786 645.78 346.207 602.363 356.123 548.961C366.039 495.543 374.686 452.362 375.441 452.505C376.199 452.643 368.776 496.048 358.865 549.469C348.95 602.87 340.301 646.056 339.543 645.918Z" fill="#6B0504"/>
<path d="M492.35 537.181C493.045 537.52 477.56 570.841 457.771 611.6C437.972 652.372 421.368 685.143 420.678 684.806C419.987 684.47 435.465 651.152 455.265 610.38C475.047 569.623 491.652 536.848 492.35 537.181Z" fill="#6B0504"/>
<path d="M940.755 646.287C940.752 646.355 940.009 646.355 938.581 646.281C936.932 646.17 934.855 646.035 932.284 645.866C926.489 645.39 918.476 644.729 908.409 643.902L908.619 643.893C873.443 650.812 811.245 662.608 740.413 675.75C685.212 685.825 635.26 694.945 598.756 701.61C580.823 704.746 566.211 707.306 555.768 709.134C550.888 709.93 546.993 710.562 544.056 711.043C541.373 711.451 539.954 711.616 539.939 711.523C539.923 711.431 541.301 711.077 543.955 710.496C546.872 709.892 550.734 709.08 555.57 708.077C565.975 706.038 580.53 703.185 598.394 699.682C634.859 692.812 684.762 683.407 739.904 673.015C810.734 659.878 873.034 648.583 908.347 642.426L908.463 642.409L908.557 642.417C918.6 643.54 926.589 644.439 932.364 645.08C934.918 645.409 936.979 645.671 938.623 645.883C940.037 646.078 940.764 646.222 940.755 646.287Z" fill="#6B0504"/>
<path d="M950.066 679.531C950.076 679.581 949.648 679.717 948.796 679.933C947.784 680.178 946.543 680.477 945.015 680.846C941.461 681.636 936.587 682.722 930.431 684.091C917.506 686.839 899.209 690.723 876.692 695.509C831.062 704.926 768.415 717.858 699.205 732.142C629.897 746.122 567.17 758.774 521.493 767.989C498.889 772.412 480.523 776.004 467.548 778.543C461.341 779.695 456.43 780.611 452.843 781.278C451.289 781.54 450.031 781.751 449 781.925C448.132 782.054 447.676 782.099 447.665 782.054C447.649 782.008 448.077 781.871 448.924 781.653C449.936 781.408 451.17 781.112 452.693 780.741C456.247 779.951 461.107 778.871 467.258 777.501C480.175 774.756 498.468 770.869 520.978 766.086C566.62 756.668 629.298 743.731 698.547 729.435C767.851 715.453 830.589 702.799 876.283 693.586C898.875 689.164 917.241 685.571 930.216 683.033C936.419 681.878 941.328 680.968 944.907 680.303C946.455 680.045 947.713 679.833 948.741 679.664C949.612 679.53 950.06 679.488 950.066 679.531Z" fill="#6B0504"/>
<path d="M961.205 719.278C961.205 719.278 962.369 720.677 964.612 723.584C966.914 726.59 970.229 730.922 974.555 736.588C983.368 748.212 996.276 765.243 1012.9 787.168L1013.13 787.479L1012.98 787.844C973.371 880.615 899.828 1052.88 813.613 1254.84L813.257 1255.67L812.354 1255.68C789.973 1255.95 766.254 1256.24 742.235 1256.54C738.046 1256.59 733.863 1256.64 729.703 1256.69L728.598 1256.7L728.331 1255.63C719.023 1218.21 709.921 1181.6 701.139 1146.3L701.046 1145.92L701.163 1145.56C748.325 998.739 789.509 870.521 818.417 780.532L818.542 780.143L818.91 779.984C863.739 760.772 899.33 745.518 923.814 735.025C935.902 729.891 945.237 725.926 951.651 723.202C954.735 721.91 957.106 720.924 958.796 720.215C960.407 719.55 961.205 719.278 961.205 719.278C961.205 719.278 960.364 719.717 958.743 720.453C957.04 721.22 954.655 722.288 951.553 723.682C945.147 726.518 935.814 730.639 923.736 735.979C899.437 746.631 864.107 762.115 819.62 781.612L820.111 781.069C791.428 871.13 750.565 999.452 703.772 1146.39L703.796 1145.64C712.591 1180.94 721.71 1217.54 731.032 1254.96L729.665 1253.9C733.825 1253.85 738.009 1253.8 742.197 1253.75C766.215 1253.46 789.936 1253.17 812.316 1252.9L811.057 1253.74C897.84 1052.03 971.862 879.972 1011.73 787.309L1011.81 787.98C995.523 765.982 982.883 748.901 974.254 737.234C970.007 731.44 966.754 727.01 964.498 723.93C962.31 720.912 961.205 719.278 961.205 719.278Z" fill="#6B0504"/>
<path d="M794.689 711.102C794.729 711.089 794.909 711.477 795.225 712.253C795.581 713.159 796.022 714.301 796.577 715.724C797.781 718.975 799.456 723.495 801.606 729.291C805.964 741.36 812.221 758.695 820.093 780.514L820.192 780.789L820.104 781.071C801.934 838.282 773.631 927.382 741.89 1027.33C728.35 1069.54 715.431 1109.82 703.708 1146.37L703.342 1147.52L702.175 1147.23C649.737 1134.49 604.497 1123.49 570.557 1115.24L571.257 1115.1C552.783 1128.06 538.115 1138.35 527.902 1145.52C522.964 1148.92 519.102 1151.58 516.327 1153.49C515.093 1154.31 514.103 1154.97 513.314 1155.49C512.629 1155.93 512.27 1156.14 512.248 1156.11C512.226 1156.08 512.536 1155.8 513.172 1155.3C513.924 1154.72 514.871 1154 516.048 1153.11C518.76 1151.11 522.532 1148.33 527.36 1144.76C537.466 1137.45 551.973 1126.93 570.249 1113.7L570.564 1113.47L570.949 1113.56C604.934 1121.59 650.248 1132.3 702.765 1144.72L701.232 1145.58C712.894 1109.01 725.751 1068.72 739.219 1026.48C771.363 926.665 800.025 837.678 818.43 780.542L818.435 781.097C810.883 759.168 804.882 741.739 800.703 729.608C798.74 723.747 797.207 719.174 796.109 715.89C795.647 714.435 795.278 713.27 794.983 712.341C794.751 711.53 794.649 711.116 794.689 711.102Z" fill="#6B0504"/>
<path d="M570.753 1114.39C570.655 1114.39 570.56 1113.09 570.475 1110.61C570.412 1107.84 570.337 1104.24 570.241 1099.76C570.157 1090 570.05 1076.45 569.907 1059.87L569.924 1060.06C563.894 1029.01 555.753 987.137 546.792 941.008C537.868 893.43 529.788 850.379 523.866 818.815C521.11 803.405 518.862 790.816 517.231 781.724C516.549 777.562 515.996 774.211 515.566 771.611C515.214 769.296 515.078 768.067 515.17 768.052C515.263 768.036 515.588 769.224 516.115 771.506C516.672 774.075 517.398 777.397 518.293 781.516C520.131 790.563 522.676 803.097 525.795 818.437C531.923 849.961 540.284 892.957 549.518 940.478C558.185 986.664 566.059 1028.59 571.89 1059.67L571.909 1059.77L571.907 1059.86C571.67 1076.45 571.474 1089.99 571.336 1099.75C571.214 1104.23 571.111 1107.83 571.036 1110.6C570.957 1113.09 570.857 1114.39 570.753 1114.39Z" fill="#6B0504"/>
<g opacity="0.3">
<path d="M836.338 1284.14L981.31 860.023L812.339 1254.29L836.338 1284.14Z" fill="#6B0504"/>
</g>
<path d="M643.77 1125.45C644.098 1125.98 644.27 1124.63 644.015 1122.12C643.811 1119.64 643.377 1115.97 642.752 1111.25C641.498 1101.82 639.47 1088.2 636.854 1071.38C631.378 1037.49 623.896 991.194 615.628 940.047C607.24 888.898 599.645 842.606 594.085 808.727C591.452 792.145 589.298 778.619 587.754 768.9C587.093 764.406 586.564 760.805 586.161 758.049C585.826 755.561 585.699 754.25 585.791 754.235C585.884 754.22 586.2 755.502 586.716 757.957C587.254 760.692 587.949 764.266 588.827 768.719C590.587 778.403 593.03 791.881 596.033 808.402C601.971 841.936 609.948 888.31 618.38 939.596C626.805 990.869 634.069 1037.36 638.803 1071.1C641.168 1087.96 642.905 1101.64 643.829 1111.14C644.292 1115.88 644.552 1119.58 644.575 1122.1C644.585 1123.36 644.542 1124.33 644.405 1124.98C644.334 1125.28 644.264 1125.63 643.972 1125.64C643.769 1125.57 643.77 1125.45 643.77 1125.45Z" fill="#6B0504"/>
<path d="M725.591 1071.31C724.83 1071.43 712.576 997.009 698.223 905.106C683.864 813.173 672.845 738.573 673.611 738.456C674.372 738.336 686.625 812.744 700.984 904.677C715.332 996.577 726.353 1071.19 725.591 1071.31Z" fill="#6B0504"/>
<path d="M789.125 881.678C788.371 881.823 780.892 846.097 772.427 801.892C763.961 757.674 757.712 721.72 758.471 721.577C759.225 721.431 766.701 757.15 775.167 801.368C783.632 845.574 789.879 881.532 789.125 881.678Z" fill="#6B0504"/>
</g>
</svg>
