<svg width="5039" height="930" viewBox="0 0 5039 930" fill="none" xmlns="http://www.w3.org/2000/svg">
<g filter="url(#filter0_d_1872_29)">
<path d="M3131.38 200.004C3205.26 -99.0377 3602.88 92.5043 3755.88 183.004C3908.88 273.504 3979.38 551.504 4344.38 499.504C4709.38 447.504 4998.02 655.607 5000.88 733.004C5003.83 812.683 4534.02 705.893 4164.89 588.43C3929.83 672.108 3866.38 293.004 3693.88 231.504C3521.38 170.004 3440.82 365.901 3319.38 337.504C3055.02 275.686 3136.39 553.933 3038.88 619.004C2941.37 684.076 2939 813.239 2491.87 849.076C2041.11 885.204 1709.89 834.576 1345.39 582.076C980.884 329.576 929.885 650.576 652.385 380.076C430.384 163.676 150.882 162.243 38.8818 188.576C167.549 71.9094 473.984 -84.224 670.385 224.576C915.885 610.576 1063.88 58.576 1406.39 477.576C1748.89 896.576 2396.38 629.004 2660.88 567.004C2925.38 505.004 3057.88 497.504 3131.38 200.004Z" fill="#6B0504" fill-opacity="0.5" shape-rendering="crispEdges"/>
</g>
<g filter="url(#filter1_f_1872_29)">
<path d="M3757.88 507.835C3571.88 382.335 3503.38 398.835 3308.88 410.835C3114.38 422.835 3170.88 576.835 2640.88 443.335C2110.88 309.835 2527.88 766.335 1924.88 604.835C1321.88 443.335 1006.38 617.835 917.383 301.835C846.183 49.0345 380.716 118.168 156.883 184.335" stroke="url(#paint0_linear_1872_29)" stroke-width="5"/>
<path d="M3757.88 605.403C3571.88 479.903 3503.38 496.403 3308.88 508.403C3114.38 520.403 3170.88 674.403 2640.88 540.903C2110.88 407.403 2527.88 863.903 1924.88 702.403C1321.88 540.903 1006.38 715.403 917.383 399.403C846.183 146.603 380.716 215.737 156.883 281.903" stroke="url(#paint1_linear_1872_29)" stroke-width="5"/>
<path d="M3757.88 696.403C3571.88 570.903 3503.38 587.403 3308.88 599.403C3114.38 611.403 3170.88 765.403 2640.88 631.903C2110.88 498.403 2527.88 954.903 1924.88 793.403C1321.88 631.903 1006.38 806.403 917.383 490.403C846.183 237.603 380.716 306.737 156.883 372.903" stroke="url(#paint2_linear_1872_29)" stroke-width="5"/>
</g>
<path d="M3758.88 505.835C3572.88 380.335 3504.38 396.835 3309.88 408.835C3115.38 420.835 3171.88 574.835 2641.88 441.335C2111.88 307.835 2528.88 764.335 1925.88 602.835C1322.88 441.335 1007.38 615.835 918.383 299.835C847.183 47.0345 381.716 116.168 157.883 182.335" stroke="url(#paint3_linear_1872_29)" stroke-width="2"/>
<path d="M3758.88 603.403C3572.88 477.903 3504.38 494.403 3309.88 506.403C3115.38 518.403 3171.88 672.403 2641.88 538.903C2111.88 405.403 2528.88 861.903 1925.88 700.403C1322.88 538.903 1007.38 713.403 918.383 397.403C847.183 144.603 381.716 213.737 157.883 279.903" stroke="url(#paint4_linear_1872_29)" stroke-width="2"/>
<path d="M3758.88 694.403C3572.88 568.903 3504.38 585.403 3309.88 597.403C3115.38 609.403 3171.88 763.403 2641.88 629.903C2111.88 496.403 2528.88 952.903 1925.88 791.403C1322.88 629.903 1007.38 804.403 918.383 488.403C847.183 235.603 381.716 304.737 157.883 370.903" stroke="url(#paint5_linear_1872_29)" stroke-width="2"/>
<g filter="url(#filter2_d_1872_29)">
<path d="M1102.14 635.974C835.137 812.974 820.637 345.974 379.637 319.974L339.137 421.475C664.137 453.475 765.637 821.974 1137.14 795.974C1259.43 787.416 1523.14 334.474 1952.64 673.974C2382.14 1013.47 3278.76 833.449 3369.14 521.504C3439.59 278.307 3697.64 389.504 3712.14 389.004C3726.64 388.504 4093.64 653.247 4240.64 612.871C4387.64 572.496 4791.88 845.663 4819.64 851.433C4870.14 861.933 4882.14 700.832 4819.64 673.433C4786.29 658.816 4428.14 370.496 4283.14 463.585C4138.14 556.674 3825.14 341.933 3785.64 287.395C3746.14 232.857 3384.64 194.554 3287.14 398.475C3189.64 602.395 2463.14 891.474 1978.64 589.974C1494.14 288.474 1369.14 458.974 1102.14 635.974Z" fill="#D6B700" fill-opacity="0.27" shape-rendering="crispEdges"/>
</g>
<defs>
<filter id="filter0_d_1872_29" x="0.781837" y="0.665627" width="5038.22" height="896.925" filterUnits="userSpaceOnUse" color-interpolation-filters="sRGB">
<feFlood flood-opacity="0" result="BackgroundImageFix"/>
<feColorMatrix in="SourceAlpha" type="matrix" values="0 0 0 0 0 0 0 0 0 0 0 0 0 0 0 0 0 0 127 0" result="hardAlpha"/>
<feOffset/>
<feGaussianBlur stdDeviation="19.05"/>
<feComposite in2="hardAlpha" operator="out"/>
<feColorMatrix type="matrix" values="0 0 0 0 0.783654 0 0 0 0 0.0349688 0 0 0 0 0.0276287 0 0 0 1 0"/>
<feBlend mode="normal" in2="BackgroundImageFix" result="effect1_dropShadow_1872_29"/>
<feBlend mode="normal" in="SourceGraphic" in2="effect1_dropShadow_1872_29" result="shape"/>
</filter>
<filter id="filter1_f_1872_29" x="139.474" y="103.566" width="3636.51" height="744.093" filterUnits="userSpaceOnUse" color-interpolation-filters="sRGB">
<feFlood flood-opacity="0" result="BackgroundImageFix"/>
<feBlend mode="normal" in="SourceGraphic" in2="BackgroundImageFix" result="shape"/>
<feGaussianBlur stdDeviation="8.35" result="effect1_foregroundBlur_1872_29"/>
</filter>
<filter id="filter2_d_1872_29" x="267.037" y="171.904" width="4667.19" height="757.411" filterUnits="userSpaceOnUse" color-interpolation-filters="sRGB">
<feFlood flood-opacity="0" result="BackgroundImageFix"/>
<feColorMatrix in="SourceAlpha" type="matrix" values="0 0 0 0 0 0 0 0 0 0 0 0 0 0 0 0 0 0 127 0" result="hardAlpha"/>
<feOffset/>
<feGaussianBlur stdDeviation="36.05"/>
<feComposite in2="hardAlpha" operator="out"/>
<feColorMatrix type="matrix" values="0 0 0 0 0.933333 0 0 0 0 0.607843 0 0 0 0 0 0 0 0 0.49 0"/>
<feBlend mode="normal" in2="BackgroundImageFix" result="effect1_dropShadow_1872_29"/>
<feBlend mode="normal" in="SourceGraphic" in2="effect1_dropShadow_1872_29" result="shape"/>
</filter>
<linearGradient id="paint0_linear_1872_29" x1="1957.38" y1="122.766" x2="1957.38" y2="639.89" gradientUnits="userSpaceOnUse">
<stop stop-color="#DAA64F"/>
<stop offset="0.259615" stop-color="#EDC98B"/>
<stop offset="0.466346" stop-color="#DAA64F"/>
<stop offset="0.769231" stop-color="#EDC98B"/>
<stop offset="1" stop-color="#DAA64F"/>
</linearGradient>
<linearGradient id="paint1_linear_1872_29" x1="1957.38" y1="220.334" x2="1957.38" y2="737.459" gradientUnits="userSpaceOnUse">
<stop stop-color="#DAA64F"/>
<stop offset="0.259615" stop-color="#EDC98B"/>
<stop offset="0.466346" stop-color="#DAA64F"/>
<stop offset="0.769231" stop-color="#EDC98B"/>
<stop offset="1" stop-color="#DAA64F"/>
</linearGradient>
<linearGradient id="paint2_linear_1872_29" x1="1957.38" y1="311.334" x2="1957.38" y2="828.459" gradientUnits="userSpaceOnUse">
<stop stop-color="#DAA64F"/>
<stop offset="0.259615" stop-color="#EDC98B"/>
<stop offset="0.466346" stop-color="#DAA64F"/>
<stop offset="0.769231" stop-color="#EDC98B"/>
<stop offset="1" stop-color="#DAA64F"/>
</linearGradient>
<linearGradient id="paint3_linear_1872_29" x1="1958.38" y1="120.766" x2="1958.38" y2="637.89" gradientUnits="userSpaceOnUse">
<stop stop-color="#DAA64F"/>
<stop offset="0.259615" stop-color="#EDC98B"/>
<stop offset="0.466346" stop-color="#DAA64F"/>
<stop offset="0.769231" stop-color="#EDC98B"/>
<stop offset="1" stop-color="#DAA64F"/>
</linearGradient>
<linearGradient id="paint4_linear_1872_29" x1="1958.38" y1="218.334" x2="1958.38" y2="735.459" gradientUnits="userSpaceOnUse">
<stop stop-color="#DAA64F"/>
<stop offset="0.259615" stop-color="#EDC98B"/>
<stop offset="0.466346" stop-color="#DAA64F"/>
<stop offset="0.769231" stop-color="#EDC98B"/>
<stop offset="1" stop-color="#DAA64F"/>
</linearGradient>
<linearGradient id="paint5_linear_1872_29" x1="1958.38" y1="309.334" x2="1958.38" y2="826.459" gradientUnits="userSpaceOnUse">
<stop stop-color="#DAA64F"/>
<stop offset="0.259615" stop-color="#EDC98B"/>
<stop offset="0.466346" stop-color="#DAA64F"/>
<stop offset="0.769231" stop-color="#EDC98B"/>
<stop offset="1" stop-color="#DAA64F"/>
</linearGradient>
</defs>
</svg>
